<?xml version="1.0" encoding="UTF-8"?><svg id="Layer_1" xmlns="http://www.w3.org/2000/svg" xmlns:xlink="http://www.w3.org/1999/xlink" viewBox="0 0 200 200"><defs><style>.cls-1{fill:none;}.cls-2{clip-path:url(#clippath);}.cls-3{fill:#ea6530;}.cls-4{fill:#fff;}.cls-5{fill:#97ddd1;}.cls-6{fill:#1a3c40;}.cls-7{fill:#3d1b24;}.cls-8{clip-path:url(#clippath-1);}.cls-9{opacity:.55;}</style><clipPath id="clippath"><rect class="cls-1" x="6.75" y="34.01" width="186.5" height="131.98"/></clipPath><clipPath id="clippath-1"><rect class="cls-1" x="6.75" y="34.01" width="186.5" height="131.98"/></clipPath></defs><g class="cls-9"><g class="cls-2"><path class="cls-5" d="M49.75,34.15V119.45h101.69c.12,0,.23,0,.35,0,22.89,0,41.46-19.09,41.46-42.65s-18.56-42.65-41.46-42.65c-.12,0-.24,0-.35,0h0s-101.69,0-101.69,0Z"/></g><rect class="cls-7" x="47.22" y="34.01" width="42.39" height="42.72"/><g class="cls-8"><path class="cls-6" d="M48.57,119.47h41.82c-.19-23.48-18.8-42.46-41.82-42.66v42.66Z"/><path class="cls-5" d="M48.57,76.67H6.75c.19-23.48,18.81-42.46,41.82-42.66v42.66Z"/><path class="cls-7" d="M56.12,125.42v40.56c22.78-.19,41.21-18.24,41.4-40.56H56.12Z"/><path class="cls-3" d="M48.9,77.28c-.13,0-.26,0-.39,0-22.71,0-41.12,18.2-41.12,40.66,0,.12,0,.23,0,.35h0v47.71H48.9V77.28Z"/></g></g><g><path class="cls-4" d="M155.3,115.83c-2.07-3.9-6.91-5.39-10.81-3.32-.12,.07-.25,.14-.37,.21l-19.59,11.47c-1.6,3.89-5.21,6.58-9.39,7.01l-27.61,2.91c-.06,0-.13,.01-.19,.01-1,0-1.81-.83-1.8-1.83,0-.92,.7-1.69,1.61-1.79l.19-.02h0l27.25-2.87c4.09-.43,7.19-3.88,7.19-7.99h0c0-4.13-3.13-7.58-7.23-7.99l-26.76-2.67c-1.5-.15-2.98-.49-4.39-1l-14.07-5.12c-2.46-.9-5.09-1.25-7.7-1.03l-16.13,1.35c-.94,.08-1.67,.87-1.66,1.81v30.95c0,1,.81,1.81,1.81,1.81h6.35c2.96,0,5.87,.72,8.48,2.11l20.7,10.96c3.95,2.09,8.53,2.65,12.87,1.57l34.55-8.64c1.46-.36,2.83-1.03,4.02-1.95l20.22-15.65c3.2-2.39,4.23-6.72,2.45-10.29Z"/><path class="cls-4" d="M112.73,47.1c-13.01,0-23.56,10.55-23.56,23.56s10.55,23.56,23.56,23.56,23.56-10.55,23.56-23.56c-.01-13.01-10.56-23.55-23.56-23.56Zm8.53,24.85l-7.25,7.25c-.71,.71-1.86,.71-2.56,0l-7.25-7.25c-.71-.71-.71-1.86,0-2.56l7.25-7.25c.71-.71,1.86-.71,2.56,0l7.25,7.25c.71,.71,.71,1.86,0,2.56Z"/></g></svg>