<?xml version="1.0" encoding="UTF-8"?><svg id="a" xmlns="http://www.w3.org/2000/svg" viewBox="0 0 1000 1000"><defs><style>.b{fill:#eacdb0;}.c{fill:#ffbe9f;}.d{fill:#f0a17f;}.e{fill:#fbbda0;}.f{fill:#916f4f;}.g{fill:#73583e;}.h{fill:#b9d9eb;}.i{fill:#dec2a7;}.j{fill:#3e5b58;}.k{fill:none;stroke:#3e5b58;stroke-linecap:round;stroke-linejoin:round;stroke-width:3px;}.l{fill:#e6e6e6;opacity:.4;}</style></defs><path class="l" d="M816.48,322.1c-51.31-87.85-89.08-115.49-115.79-129.74-62.29-33.22-102.65-36.87-171.07-26.03-82.45,13.06-111.3,32.65-158.36,77.34-46.69,44.35-44.86,86.09-81.97,126.79-36.98,40.57-66.66,30.69-118.5,64.72-62.58,41.08-97.89,165.08-59.82,253.01,35.94,83.03,123.89,102.89,150,108.79,133.04,30.04,179.73-71.98,340.42-94.54,185.63-26.05,208.4-28.04,257.83-87.51,66.45-79.94,5.74-209.82-42.74-292.83Z"/><g><circle class="d" cx="626.97" cy="464.77" r="64.94"/><circle class="c" cx="631.64" cy="455.18" r="64.94"/><path class="k" d="M624.95,416.04c-19.21,18.74-34.2,38.03-22.53,45.57,11.68,7.55,55.87-26.37,61.62-9.72s-21.24,25.99-27.52,29.67"/><path class="k" d="M593.66,418.8c9.79,13.74,53.19,57.67,63.61,73.22"/><path class="k" d="M622.42,432.03c8.08,8.79,36.43,39.79,46.38,53.99"/><path class="k" d="M609.98,381.58c2.44-12.94-6.2-46.23-6.2-46.23"/><path class="k" d="M653.8,375.07c6.27-8.5,12.99-39.05,12.99-39.05"/><path class="k" d="M686.7,408.61c7.66-7.83,31.52-28.75,36.82-31.74"/><path class="k" d="M702.92,442.16c10.31-1.84,29.71-5.67,38.69-3.02"/></g><g><path class="f" d="M201.5,569.5c-.73,8.19,5.38,15.5,13.57,16.23l28.6,2.55c8.19,.73,21.04,4.08,28.55,7.44l48.76,21.83c7.51,3.36,20.36,6.71,28.55,7.44l5.94,.53c8.19,.73,20.62-2.22,27.62-6.55l111.69-69.13c7-4.33,9.94-11.97,6.55-16.99s-12.24-6.2-19.66-2.65l-46.63,22.36c-7.42,3.56-20.19,5.86-28.39,5.13l-187.61-16.84c-8.19-.74-15.5,5.37-16.22,13.56l-1.34,15.09Z"/><path class="g" d="M204.3,538.11c.73-8.19,8.04-14.29,16.23-13.54l43.27,3.95,15.11-4.91c12.19-3.96,24.53-8.72,37.34-4.36,7.03,2.39,13.1,6.83,19.04,11.16,3.01,2.19,6.01,4.38,9.14,6.39,2.15,1.38,6.7,5.58,9.16,5.8l59.96,5.34c8.19,.73,14.4,6.91,13.8,13.73s-7.81,11.8-16,11.07l-67.41-6-29.8-2.65-96.38-8.58c-8.19-.73-14.3-8.03-13.57-16.22l.1-1.17Z"/><path class="h" d="M245.58,601.52s-142.7,36.33-183.88-12.83c-13.81-16.49-8.86-71.88,7.63-85.69,49.17-41.18,183.88,12.83,183.88,12.83l-7.63,85.69Z"/></g><g><path class="e" d="M442.16,399.88c13.7,29.71,52.26,103.19,15.05,118.96-37.22,15.77-161.72-8.63-141.4-52.83,20.32-44.2,65.21-68.59,84.54-82.77-10.19-25.56-16.23-54.62-16.23-54.62,26.01,16.47,59.04,31.99,86.02,36.97-7.86,9.64-19.2,19.75-33.05,23.85l5.08,10.45Z"/><path class="k" d="M430.38,433.42c-25.87-7.7-50.15-11.42-51.06,2.53-.91,13.95,50.52,36.16,38.72,49.37-11.8,13.21-33.23-5.93-39.54-9.65"/><path class="k" d="M412.64,407.29c-7.28,15.33-24.61,74.97-33.17,91.73"/><path class="k" d="M415.1,439.03c-3.77,11.4-17.11,51.49-24.71,67.18"/><path class="d" d="M350.49,498.94s-27.41-16.15-19.14-46.6c0,0-13.85,14.51-10.34,28.67,3.5,14.16,29.48,17.93,29.48,17.93Z"/><path class="d" d="M423.77,388.2c7.76-1.18,15.25-4.07,21.79-8.4,1.03-.68,2.11-1.51,2.36-2.72,.05-.24,.06-.52-.1-.72-.18-.23-.51-.27-.8-.28-5.9-.23-11.42,2.68-16.61,5.51,1.14-3.78,1.72-7.73,1.7-11.68,0-1.14-.32-2.6-1.45-2.78-1.13-.19-1.89,1.1-2.31,2.17l-4.35,11.27c-.83-4.45-1.84-8.87-3.02-13.25-.25-.93-.9-2.1-1.83-1.83-.63,.19-.86,.95-.99,1.59-.66,3.44-1.11,6.93-1.35,10.43-2.02-2.36-3.29-5.25-4.89-7.91-1.6-2.66-3.7-5.23-6.61-6.3-.23-.08-.48-.16-.72-.12-.32,.05-.58,.29-.77,.55-1.07,1.4-.89,3.38-.47,5.09,1.94,7.94,8.18,14.7,15.94,17.26l4.46,2.12Z"/></g><g><path class="b" d="M822.03,568.8c.73,8.19-5.38,15.5-13.57,16.23l-28.6,2.55c-8.19,.73-21.04,4.08-28.55,7.44l-48.76,21.83c-7.51,3.36-20.36,6.71-28.55,7.44l-5.94,.53c-8.19,.73-20.62-2.22-27.62-6.55l-111.69-69.13c-7-4.33-9.94-11.97-6.55-16.99,3.39-5.01,12.24-6.2,19.66-2.65l46.63,22.36c7.42,3.56,20.19,5.86,28.39,5.13l187.61-16.84c8.19-.74,15.5,5.37,16.22,13.56l1.34,15.09Z"/><path class="i" d="M819.23,537.41c-.73-8.19-8.04-14.29-16.23-13.54l-43.27,3.95-15.11-4.91c-12.19-3.96-24.53-8.72-37.34-4.36-7.03,2.39-13.1,6.83-19.04,11.16-3.01,2.19-6.01,4.38-9.14,6.39-2.15,1.38-6.7,5.58-9.16,5.8l-59.96,5.34c-8.19,.73-14.4,6.91-13.8,13.73s7.81,11.8,16,11.07l67.41-6,29.8-2.65,96.38-8.58c8.19-.73,14.3-8.03,13.57-16.22l-.1-1.17Z"/><path class="j" d="M777.94,600.82s142.7,36.33,183.88-12.83c13.81-16.49,8.86-71.88-7.63-85.69-49.17-41.18-183.88,12.83-183.88,12.83l7.63,85.69Z"/></g></svg>