<?xml version="1.0" encoding="utf-8"?>
<!-- Generator: Adobe Illustrator 27.0.0, SVG Export Plug-In . SVG Version: 6.00 Build 0)  -->
<svg version="1.1" id="Layer_1" xmlns="http://www.w3.org/2000/svg" xmlns:xlink="http://www.w3.org/1999/xlink" x="0px" y="0px"
	 viewBox="0 0 32 32" style="enable-background:new 0 0 32 32;" xml:space="preserve">
<style type="text/css">
	.st0{fill:#3D1B24;}
	.st1{fill:#EA6530;}
</style>
<path class="st0" d="M-49.9,0.3h27.8c1,0,1.8,0.8,1.8,1.8v27.8c0,1-0.8,1.8-1.8,1.8h-27.8c-1,0-1.8-0.8-1.8-1.8V2.1
	C-51.7,1.1-50.9,0.3-49.9,0.3z"/>
<g>
	<path class="st1" d="M-45.6,21c0.2,0,0.3,0.2,0.8,0.6c0.3,0.3,1,0.8,1.3,1.1c0.2,0.2,0.4,0.3,0.5,0.6c0.1,0.3,0,0.6,0,0.7
		c-0.1,0.4-0.5,0.6-0.7,0.7c-0.2,0.1-0.8,0.5-1.5,0.3c-0.6-0.2-0.9-0.9-0.9-1.1c-0.1-0.4,0-1,0.2-2.1C-45.8,21.2-45.8,21.1-45.6,21
		L-45.6,21z"/>
	<path class="st1" d="M-43.7,25.6c0.2-0.6,0.9-0.9,1-0.9c0.2-0.1,0.4-0.1,1.2,0c1.6,0.2,2.1,0.4,2.2,0.5c0.4,0.2,0.7,0.4,0.8,0.7
		c0.2,0.6-0.3,1.4-0.8,1.8c-1.1,0.9-3.1,0.6-4-0.5C-43.4,27-43.9,26.3-43.7,25.6L-43.7,25.6z"/>
	<path class="st1" d="M-25.8,7.7c0.1-1-0.5-1.6-1.1-2.4c-0.6-0.7-1.2-1.5-2-1.4c-0.3,0-0.6,0.2-1.2,0.8c-0.5,0.6-1.3,1.6-1.9,3.1
		c-1.1,0.4-2.4,0.7-3.7,1c-1.2,0.3-2.3,0.4-3.4,0.6c-0.5-0.2-1.2-0.4-2.1-0.8c-1-0.5-1.3-0.7-1.7-0.6c-0.7,0.3-0.8,1.7-0.8,2.1
		c-0.1,0.9,0.2,1.7,0.4,2.1c-0.2,0.4-0.4,0.8-0.7,1.3c-0.8,1.8-0.9,3.5-0.9,4.8c-0.2,0.5-0.4,1-0.6,1.5c0.3,0.1,0.8,0.2,1.3,0.1
		c0.6-0.1,0.6-0.2,1.4-0.4c0.8-0.1,1.3,0,1.4,0c0.3,0.1,0.5,0.2,0.7,0.3c-0.4,0.7-0.7,1.3-0.9,1.7c-0.5,0.8-0.9,1.2-0.7,1.8
		c0.1,0.3,0.2,0.5,0.3,0.6c0.8,1,3.5,0.7,3.9,0.7c4.6-0.6,6.9-0.9,7.7-1.4c0.2-0.1,0.6-0.4,1.1-0.8c0.1-0.7,0.3-1.5,0.3-2.5
		c0.1-1.6-0.2-2-0.5-2.3c-0.6-0.6-1.4-0.7-1.4-1c0-0.3,0.5-0.3,0.8-0.7c0.1-0.2,0.4-0.6,0-1.9c-0.5-1.8-1.5-2.6-1.3-2.8
		c0.2-0.2,1.7,0.3,2.4,1.6c0.2,0.3,0.7,0.6,1.1,3.3c0.1,0.9,0.2,2.2,0.2,2.9c0,0.7,0,1.2-0.2,2.1c0.8-0.9,1.5-2.2,1.7-3.7
		c0.3-2.2-0.5-3.9-0.9-4.7c0.2-0.2,0.5-0.8,0.6-1.6c0-0.5-0.1-1-0.2-1.2C-26.5,9.3-25.9,8.7-25.8,7.7L-25.8,7.7z M-42.9,15.2
		c-0.1,0.7-0.6,1.2-0.7,1.4c-0.2-0.6-0.3-1.2-0.3-1.5c0-0.2,0-0.3,0.1-0.5c0.2-0.3,0.9-0.1,0.9-0.1C-42.9,14.7-42.8,14.9-42.9,15.2
		L-42.9,15.2z M-34.8,9.7c0.1-0.2,0.5-0.3,0.9-0.2c1.2,0.2,2,1.6,1.8,1.9c-0.1,0.1-0.3,0-0.8,0c-0.8,0.1-1.2,0.4-1.3,0.3
		c-0.1-0.1,0.3-0.4,0.3-0.8C-34,10.2-34.8,9.9-34.8,9.7L-34.8,9.7z M-35.9,14.5c-0.4,0.5-1.1,0.6-1.3,0.7c-0.4,0.1-0.4,0-0.7,0.1
		c-0.5,0.2-0.7,0.8-0.7,0.7c-0.1,0,0.1-0.6,0.4-1.4c0.4-1,0.6-1.5,1-1.7c0.3-0.1,0.6-0.1,1.2-0.1c0.4,0,0.8,0.1,1,0.1
		c-0.1,0.2-0.3,0.4-0.5,0.7C-35.8,14.3-35.7,14.3-35.9,14.5L-35.9,14.5z M-31.1,17.7c0.2,0.7,0,1.4-0.2,2.1
		c-0.5,1.6-1.6,2.7-1.8,2.6c-0.1-0.1-0.2-0.6,0.4-2.7c0.2-0.6,0.3-1.2,0.1-1.3c-0.3-0.3-0.7-0.3-1.1,0.1c-0.4,0.4-0.6,0.7-0.8,0.7
		c-0.2,0.1-0.6,0-0.6-0.6c0-0.7,0.8-1.2,1.5-1.4c0.7-0.2,1.3,0.1,1.4-0.1c0.1-0.2-0.5-0.5-0.7-1.2c-0.1-0.4,0-0.5,0-1
		c0.1-1.5-0.5-2.1-0.2-2.3c0.3-0.3,1.3,0.1,1.6,0.7c0.1,0.3,0.1,0.7-0.1,1.5c-0.2,1.1-0.3,1.2-0.3,1.6C-31.7,17-31.3,17-31.1,17.7
		L-31.1,17.7z M-27.4,8.5c-0.2,0.8-0.5,1.1-0.7,1.9c-0.1,0.5,0,1,0,1.3c-0.2-0.2-0.5-0.5-0.7-0.7c-0.5-0.5-0.9-0.9-1.2-1.4
		c0.5-0.3,1.1-0.8,1.7-1.6c0.6-0.8,0.8-1.4,0.9-1.4C-27.2,6.5-27.1,7.5-27.4,8.5L-27.4,8.5z"/>
</g>
<g>
	<path class="st1" d="M6.4,21c0.2,0,0.3,0.2,0.8,0.6c0.3,0.3,1,0.8,1.3,1.1c0.2,0.2,0.4,0.3,0.5,0.6c0.1,0.3,0,0.6,0,0.7
		c-0.1,0.4-0.5,0.6-0.7,0.7c-0.2,0.1-0.8,0.5-1.5,0.3c-0.6-0.2-0.9-0.9-0.9-1.1c-0.1-0.4,0-1,0.2-2.1C6.2,21.2,6.2,21.1,6.4,21
		L6.4,21z"/>
	<path class="st1" d="M8.3,25.6c0.2-0.6,0.9-0.9,1-0.9c0.2-0.1,0.4-0.1,1.2,0c1.6,0.2,2.1,0.4,2.2,0.5c0.4,0.2,0.7,0.4,0.8,0.7
		c0.2,0.6-0.3,1.4-0.8,1.8c-1.1,0.9-3.1,0.6-4-0.5C8.6,27,8.1,26.3,8.3,25.6L8.3,25.6z"/>
	<path class="st1" d="M26.2,7.7c0.1-1-0.5-1.6-1.1-2.4c-0.6-0.7-1.2-1.5-2-1.4c-0.3,0-0.6,0.2-1.2,0.8c-0.5,0.6-1.3,1.6-1.9,3.1
		c-1.1,0.4-2.4,0.7-3.7,1c-1.2,0.3-2.3,0.4-3.4,0.6c-0.5-0.2-1.2-0.4-2.1-0.8C9.9,8.1,9.6,7.9,9.2,8C8.5,8.3,8.4,9.7,8.4,10
		c-0.1,0.9,0.2,1.7,0.4,2.1c-0.2,0.4-0.4,0.8-0.7,1.3c-0.8,1.8-0.9,3.5-0.9,4.8c-0.2,0.5-0.4,1-0.6,1.5c0.3,0.1,0.8,0.2,1.3,0.1
		c0.6-0.1,0.6-0.2,1.4-0.4c0.8-0.1,1.3,0,1.4,0c0.3,0.1,0.5,0.2,0.7,0.3c-0.4,0.7-0.7,1.3-0.9,1.7c-0.5,0.8-0.9,1.2-0.7,1.8
		c0.1,0.3,0.2,0.5,0.3,0.6c0.8,1,3.5,0.7,3.9,0.7c4.6-0.6,6.9-0.9,7.7-1.4c0.2-0.1,0.6-0.4,1.1-0.8c0.1-0.7,0.3-1.5,0.3-2.5
		c0.1-1.6-0.2-2-0.5-2.3c-0.6-0.6-1.4-0.7-1.4-1c0-0.3,0.5-0.3,0.8-0.7c0.1-0.2,0.4-0.6,0-1.9c-0.5-1.8-1.5-2.6-1.3-2.8
		c0.2-0.2,1.7,0.3,2.4,1.6c0.2,0.3,0.7,0.6,1.1,3.3c0.1,0.9,0.2,2.2,0.2,2.9c0,0.7,0,1.2-0.2,2.1c0.8-0.9,1.5-2.2,1.7-3.7
		c0.3-2.2-0.5-3.9-0.9-4.7c0.2-0.2,0.5-0.8,0.6-1.6c0-0.5-0.1-1-0.2-1.2C25.5,9.3,26.1,8.7,26.2,7.7L26.2,7.7z M9.1,15.2
		c-0.1,0.7-0.6,1.2-0.7,1.4c-0.2-0.6-0.3-1.2-0.3-1.5c0-0.2,0-0.3,0.1-0.5c0.2-0.3,0.9-0.1,0.9-0.1C9.1,14.7,9.2,14.9,9.1,15.2
		L9.1,15.2z M17.2,9.7c0.1-0.2,0.5-0.3,0.9-0.2c1.2,0.2,2,1.6,1.8,1.9c-0.1,0.1-0.3,0-0.8,0c-0.8,0.1-1.2,0.4-1.3,0.3
		c-0.1-0.1,0.3-0.4,0.3-0.8C18,10.2,17.2,9.9,17.2,9.7L17.2,9.7z M16.1,14.5c-0.4,0.5-1.1,0.6-1.3,0.7c-0.4,0.1-0.4,0-0.7,0.1
		c-0.5,0.2-0.7,0.8-0.7,0.7c-0.1,0,0.1-0.6,0.4-1.4c0.4-1,0.6-1.5,1-1.7c0.3-0.1,0.6-0.1,1.2-0.1c0.4,0,0.8,0.1,1,0.1
		c-0.1,0.2-0.3,0.4-0.5,0.7C16.2,14.3,16.3,14.3,16.1,14.5L16.1,14.5z M20.9,17.7c0.2,0.7,0,1.4-0.2,2.1c-0.5,1.6-1.6,2.7-1.8,2.6
		c-0.1-0.1-0.2-0.6,0.4-2.7c0.2-0.6,0.3-1.2,0.1-1.3c-0.3-0.3-0.7-0.3-1.1,0.1c-0.4,0.4-0.6,0.7-0.8,0.7c-0.2,0.1-0.6,0-0.6-0.6
		c0-0.7,0.8-1.2,1.5-1.4c0.7-0.2,1.3,0.1,1.4-0.1c0.1-0.2-0.5-0.5-0.7-1.2c-0.1-0.4,0-0.5,0-1c0.1-1.5-0.5-2.1-0.2-2.3
		c0.3-0.3,1.3,0.1,1.6,0.7c0.1,0.3,0.1,0.7-0.1,1.5c-0.2,1.1-0.3,1.2-0.3,1.6C20.3,17,20.7,17,20.9,17.7L20.9,17.7z M24.6,8.5
		c-0.2,0.8-0.5,1.1-0.7,1.9c-0.1,0.5,0,1,0,1.3c-0.2-0.2-0.5-0.5-0.7-0.7c-0.5-0.5-0.9-0.9-1.2-1.4c0.5-0.3,1.1-0.8,1.7-1.6
		c0.6-0.8,0.8-1.4,0.9-1.4C24.8,6.5,24.9,7.5,24.6,8.5L24.6,8.5z"/>
</g>
</svg>
