<?xml version="1.0" encoding="utf-8"?>
<!-- Generator: Adobe Illustrator 27.0.0, SVG Export Plug-In . SVG Version: 6.00 Build 0)  -->
<svg version="1.1" id="Layer_1" xmlns="http://www.w3.org/2000/svg" xmlns:xlink="http://www.w3.org/1999/xlink" x="0px" y="0px"
	 viewBox="0 0 2239 574" style="enable-background:new 0 0 2239 574;" xml:space="preserve">
<style type="text/css">
	.st0{fill:#FFFFFF;}
</style>
<g>
	<path class="st0" d="M834.3,182.7l0.2,62.1h-4.6l-15-41c-8.5-5.4-17.4-10.6-37.6-13.1v188.6l22.2,4.4v3.6h-104v-3.6l22.4-4.4V190.7
		c-20.2,2.5-29.1,7.8-37.5,13.1l-15,41h-4.6l0.2-62.1H834.3L834.3,182.7z"/>
	<path class="st0" d="M965.9,340.3c-8.1,36.9-33.6,51-62.9,51c-47.1,0-71-33.8-71-79.1s24.9-76.8,72.2-76.8
		c40.5,0,60.4,16.6,60.5,48.9c0,4.9-0.5,10.6-1.6,16.2l-83-0.9c1,35.4,16.5,57.2,46.1,57.2c14.4,0,26.8-5,38.4-17.5L965.9,340.3
		L965.9,340.3z M880.2,293.4l37.5-1.5c1.1-8.2,1.9-16.8,1.9-23.6c0-16.8-4.8-27-15.9-27C889.8,241.3,880.7,258.7,880.2,293.4z"/>
	<path class="st0" d="M1044.8,283.8v95.9l22,4.1v3.5h-88.5v-3.5l16.1-4.1V274.8c-5.5-4.2-11.4-9.1-17-14v-1.1
		c19.1-7.1,39.2-15.6,58.2-25.4h0.8c3.9,15.6,5.4,29.2,5.5,44.2c5.1-30.9,18.1-43,34.6-43c12.2,0,20.8,6.6,20.8,23.4
		c0,9.1-2.4,19.4-9.6,27.1C1074,277.7,1057.9,277.7,1044.8,283.8L1044.8,283.8z"/>
	<path class="st0" d="M1172.5,283.8v95.9l22,4.1v3.5H1106v-3.5l16.1-4.1V274.8c-5.5-4.2-11.4-9.1-17-14v-1.1
		c19.1-7.1,39.2-15.6,58.2-25.4h0.8c3.9,15.6,5.4,29.2,5.5,44.2c5.1-30.9,18.1-43,34.6-43c12.2,0,20.8,6.6,20.8,23.4
		c0,9.1-2.4,19.4-9.6,27.1C1201.8,277.7,1185.7,277.7,1172.5,283.8L1172.5,283.8z"/>
	<path class="st0" d="M1388.7,368.2c-9.1,13.8-24.6,22.9-42.2,22.9c-16,0-25.6-7-26.8-21l-13.6,9.6c-5.9,4.1-16.8,11.6-32.8,11.6
		c-21,0-38-12.9-38-35.4c0-23.6,17.9-35.2,84.4-42.4l0.4-30c0.5-24.5-8.4-37.4-27.6-37.4c-4,0-7.9,0.6-11.8,1.9
		c-0.9,16,0.8,31.5,4.1,45.4c-7.8,4.1-16.2,6-24.5,6c-14,0-25.4-6.8-25.4-21.4c0-24.9,44-42.6,81.2-42.6c39.6,0,53.1,20.1,52.2,47.5
		l-2.4,70.6c-0.2,9.2,3.4,15.2,10.2,15.2c2.9,0,6.4-0.8,10.5-2.9L1388.7,368.2L1388.7,368.2z M1318.9,365.2l0.6-45.4
		c-27.6,3.9-33.4,13.2-33.4,28s7,21.5,17.6,21.5C1308.9,369.3,1313.9,367.8,1318.9,365.2L1318.9,365.2z"/>
	<path class="st0" d="M1544.7,379.7l13.6,4.1v3.5h-76.8v-3.5l12.8-4.1v-91.9c0-14.1-6-20.2-18.2-20.2c-6.6,0-11.9,1.8-17.4,5v107.1
		l12.6,4.1v3.5h-79.1v-3.5l16-4.1V274.8c-5.5-4.4-11.1-9.1-16.6-14v-1.1c21.9-7.5,38.8-14.5,61.4-25.4h0.6c3,11.4,4.5,23.8,4.8,34
		c9-23.1,25.2-32.9,44.4-32.9c34.1,0,42,27,42,57.5V379.7L1544.7,379.7z"/>
	<path class="st0" d="M1700.4,340.3c-8.1,36.9-33.6,51-62.9,51c-47.1,0-71-33.8-71-79.1s24.9-76.8,72.2-76.8
		c40.5,0,60.4,16.6,60.5,48.9c0,4.9-0.5,10.6-1.6,16.2l-83-0.9c1,35.4,16.5,57.2,46.1,57.2c14.4,0,26.8-5,38.4-17.5L1700.4,340.3
		L1700.4,340.3z M1614.7,293.4l37.5-1.5c1.1-8.2,1.9-16.8,1.9-23.6c0-16.8-4.8-27-15.9-27C1624.3,241.3,1615.2,258.7,1614.7,293.4z"
		/>
	<path class="st0" d="M1816.9,368.3c-14.5,15-30.5,22-50.1,22c-26,0-39.8-16.9-39.8-42.1V248.1h-19.9V243l19.9-4.8V233
		c0-22.6,12-40.1,35.4-40.1c5.4,0,10.1,0.8,14.8,2.5v44.1h37.2v8.6h-37.2v95.8c0,19.9,10.4,30.9,38.4,22L1816.9,368.3L1816.9,368.3z
		"/>
	<path class="st0" d="M1950.8,340.3c-8.1,36.9-33.6,51-62.9,51c-47.1,0-71-33.8-71-79.1s24.9-76.8,72.2-76.8
		c40.5,0,60.4,16.6,60.5,48.9c0,4.9-0.5,10.6-1.6,16.2l-83-0.9c1,35.4,16.5,57.2,46.1,57.2c14.4,0,26.8-5,38.4-17.5L1950.8,340.3
		L1950.8,340.3z M1865,293.4l37.5-1.5c1.1-8.2,1.9-16.8,1.9-23.6c0-16.8-4.8-27-15.9-27C1874.7,241.3,1865.5,258.7,1865,293.4z"/>
	<path class="st0" d="M1969.9,380.1c2-14.2,2.6-31,3-46.6h5c13.9,32.6,32.4,51.2,51.8,51.2c11,0,16.9-6.1,16.9-16.8
		c0-11.9-7.1-18.9-25.5-28l-14.2-7.1c-22.2-11.1-38-24.5-38-50c0-27.5,20.2-47.6,63.4-47.6c16.1,0,31.9,2.5,46,8.4
		c0,14.4,0.9,29.5,2.1,45.8l-5.1,0.6c-19-35-37.6-48.1-52.6-48.1c-8.9,0-15,4.9-15,14.9c0,13.9,13.9,22.5,24.8,27.6l11.4,5.5
		c22.8,11.2,42.9,23.4,42.9,53.5s-22,48-61.4,48C2004.6,391.3,1984.6,387.5,1969.9,380.1L1969.9,380.1z"/>
</g>
<g>
	<path class="st0" d="M161.5,365.8c2.7-0.8,4.8,2.5,12.5,9.5c5.5,5,15.2,13.2,20.6,17.6c3.2,2.7,5.9,4.8,7.3,8.8
		c1.6,4.7,0.4,9.1,0,10.3c-2,6.5-7.3,9.9-10.3,11.7c-3.2,2-13.1,8.3-23.5,4.4c-10-3.7-13.6-14.3-14.7-17.6
		c-2.2-6.5-0.5-15.1,2.9-32.3C158.1,369.5,159.2,366.5,161.5,365.8L161.5,365.8z"/>
	<path class="st0" d="M191.6,438.5c3-9.9,14-14,16.1-14.7c2.8-0.9,5.6-1.4,19.1,0c25.1,2.6,32.7,6.1,35.2,7.3
		c7,3.4,11.4,5.6,13.2,10.3c3.6,9.2-5.1,21.6-13.2,27.9c-17.9,13.8-49,9.5-63.1-7.3C196.9,459.6,188.4,449.3,191.6,438.5
		L191.6,438.5z"/>
	<path class="st0" d="M473.4,156.7c0.9-15.2-7.7-25.9-17.6-38.2c-8.7-10.8-18.6-23-30.8-22c-5.2,0.4-10.1,3.2-19.1,13.2
		c-8.5,9.5-20.2,25.1-29.4,48.4c-17.5,5.9-37.1,11.5-58.7,16.1c-18.8,4.1-36.5,6.9-52.8,8.8c-7.9-2.8-19.1-7.1-32.3-13.2
		c-15.8-7.4-20.6-11-26.4-8.8c-11.5,4.3-12.9,26.4-13.2,32.3c-0.9,14.5,3.1,26,5.9,32.3c-3.6,6.2-7.1,13-10.3,20.6
		c-12.1,28.5-14.8,55.2-14.7,74.9c-2.9,7.8-5.9,15.7-8.8,23.5c4.8,1.3,12.1,2.6,20.6,1.5c8.9-1.2,10.1-3.8,22-5.9
		c12.9-2.2,19.8-0.6,22,0c4.5,1.2,7.9,3,10.3,4.4c-5.7,11.6-10.9,20.5-14.7,26.4c-7.7,12.3-13.5,19.1-11.7,27.9
		c0.9,4.4,3.2,7.3,4.4,8.8c13,16.1,55,11.1,61.7,10.3c72.3-9.1,108.4-13.6,121.8-22c3.3-2.1,9.6-6,17-11.8c2.2-10.3,4.5-23.6,5-39.5
		c0.9-24.4-3.1-32.1-7.3-36.7c-8.6-9.5-22.2-10.5-22-16.1c0.1-4.4,8.3-4.6,13.2-11.7c2.1-3,5.5-10,0-29.4c-8.1-28.3-23.3-41-20.5-44
		c3-3.3,26,5.3,38.2,24.9c3.1,5.1,10.6,10.1,16.7,52.6c2.1,14.8,3.2,34.2,2.6,45.3s-0.5,19-3.1,32.7c12.2-14.7,23.1-34.1,26.4-58.7
		c4.5-34.2-8.2-61.6-14.7-73.4c2.7-3.7,8.1-12.6,8.8-24.9c0.5-8.4-1.4-15.1-2.9-19.1C462.7,182.3,472.5,171.8,473.4,156.7
		L473.4,156.7z M204.8,274.1c-1.7,11.5-8.6,19-11.7,22c-3.1-10.1-4.1-18.1-4.4-23.5c-0.2-2.8-0.2-5.4,1.5-7.3
		c3.9-4.6,13.5-1.8,14.7-1.5C205.2,266.6,205.4,270.1,204.8,274.1L204.8,274.1z M332.5,187.5c0.8-2.9,8.4-4,14.7-2.9
		c18.4,3,31.3,24.8,27.9,29.4c-1.4,1.9-4.5-0.6-13.2,0c-12.1,0.9-18.8,6.5-20.5,4.4c-1.6-2,4.9-6.5,4.4-13.2
		C345,195.7,331.3,191.6,332.5,187.5L332.5,187.5z M314.9,263.8c-6.9,7.9-17.8,9.8-20.5,10.3c-5.7,1-6.6-0.1-10.3,1.5
		c-8.2,3.5-10.6,12.2-11.7,11.7c-1.2-0.5,1.1-9.9,5.9-22c6.1-15.4,9.3-23.2,16.1-26.4c4-1.9,9-1.7,19.1-1.5
		c6.7,0.2,12.3,0.9,16.1,1.5c-1.8,2.7-4.5,6.7-7.3,11.7C316.9,260,317.6,260.8,314.9,263.8L314.9,263.8z M389.8,313.7
		c3.7,11.8,0.3,22.4-2.9,32.3c-8.1,25.1-25.9,42.4-27.9,41.1c-1.7-1.1-2.6-9.6,6.8-42.4c2.5-8.9,4.2-18.5,2.1-21.1
		c-4.2-5.3-10.5-5.2-17,1.1c-6.5,6.3-9.3,10.5-13.2,11.7c-3.5,1.1-9.7-0.7-9.5-9.5c0.2-10.6,12.8-19.5,23.5-22
		c11.5-2.8,20.4,1.8,22-1.5c1.6-3.3-7.2-7.8-10.3-19.1c-1.6-5.7-0.4-8.6,0-16.1c1.2-22.9-7.6-32.7-2.9-36.7
		c4.9-4.1,20.3,1.5,25,11.7c2,4.4,0.9,10.8-1.5,23.5c-3.2,17.2-5.2,18.4-4.4,25C380.8,302,386.5,303.4,389.8,313.7L389.8,313.7z
		 M448.5,168.4c-3.4,13-8.2,16.6-10.3,29.4c-1.4,8.5-0.8,15.7,0,20.6c-3.9-3.7-7.8-7.6-11.7-11.7c-7.1-7.5-13.5-14.9-19.1-22
		c7.6-5,17.7-12.9,26.4-24.9c9-12.4,12-22.7,14.7-22C451.7,138.4,452.3,154.1,448.5,168.4L448.5,168.4z"/>
</g>
</svg>
