<?xml version="1.0" encoding="UTF-8"?><svg id="Layer_1" xmlns="http://www.w3.org/2000/svg" viewBox="0 0 2239 574"><g><path d="M834.28,182.69l.25,62.12h-4.62l-15-41c-8.5-5.38-17.38-10.62-37.62-13.12v188.62l22.25,4.38v3.62h-104v-3.62l22.38-4.38V190.69c-20.25,2.5-29.12,7.75-37.5,13.12l-15,41h-4.62l.25-62.12h173.25Z"/><path d="M965.91,340.31c-8.12,36.88-33.62,51-62.88,51-47.12,0-71-33.75-71-79.12s24.88-76.75,72.25-76.75c40.5,0,60.38,16.62,60.5,48.88,0,4.88-.5,10.62-1.62,16.25l-83-.88c1,35.38,16.5,57.25,46.12,57.25,14.38,0,26.75-5,38.38-17.5l1.25,.88Zm-85.75-46.88l37.5-1.5c1.12-8.25,1.88-16.75,1.88-23.62,0-16.75-4.75-27-15.88-27-13.88,0-23,17.38-23.5,52.12Z"/><path d="M1044.79,283.81v95.88l22,4.12v3.5h-88.5v-3.5l16.12-4.12v-104.88c-5.5-4.25-11.38-9.12-17-14v-1.12c19.12-7.12,39.25-15.62,58.25-25.38h.75c3.88,15.62,5.38,29.25,5.5,44.25,5.12-30.88,18.12-43,34.62-43,12.25,0,20.75,6.62,20.75,23.38,0,9.12-2.38,19.38-9.62,27.12-13.62-8.38-29.75-8.38-42.88-2.25Z"/><path d="M1172.54,283.81v95.88l22,4.12v3.5h-88.5v-3.5l16.12-4.12v-104.88c-5.5-4.25-11.38-9.12-17-14v-1.12c19.12-7.12,39.25-15.62,58.25-25.38h.75c3.88,15.62,5.38,29.25,5.5,44.25,5.12-30.88,18.12-43,34.62-43,12.25,0,20.75,6.62,20.75,23.38,0,9.12-2.38,19.38-9.62,27.12-13.62-8.38-29.75-8.38-42.88-2.25Z"/><path d="M1388.67,368.19c-9.12,13.75-24.62,22.88-42.25,22.88-16,0-25.62-7-26.75-21l-13.62,9.62c-5.88,4.12-16.75,11.62-32.75,11.62-21,0-38-12.88-38-35.38,0-23.62,17.88-35.25,84.38-42.38l.38-30c.5-24.5-8.38-37.38-27.62-37.38-4,0-7.88,.62-11.75,1.88-.88,16,.75,31.5,4.12,45.38-7.75,4.12-16.25,6-24.5,6-14,0-25.38-6.75-25.38-21.38,0-24.88,44-42.62,81.25-42.62,39.62,0,53.12,20.12,52.25,47.5l-2.38,70.62c-.25,9.25,3.38,15.25,10.25,15.25,2.88,0,6.38-.75,10.5-2.88l1.88,2.25Zm-69.75-3l.62-45.38c-27.62,3.88-33.38,13.25-33.38,28s7,21.5,17.62,21.5c5.12,0,10.12-1.5,15.12-4.12Z"/><path d="M1544.67,379.69l13.62,4.12v3.5h-76.75v-3.5l12.75-4.12v-91.88c0-14.12-6-20.25-18.25-20.25-6.62,0-11.88,1.75-17.38,5v107.12l12.62,4.12v3.5h-79.12v-3.5l16-4.12v-104.88c-5.5-4.38-11.12-9.12-16.62-14v-1.12c21.88-7.5,38.75-14.5,61.38-25.38h.62c3,11.38,4.5,23.75,4.75,34,9-23.12,25.25-32.88,44.38-32.88,34.12,0,42,27,42,57.5v86.75Z"/><path d="M1700.42,340.31c-8.12,36.88-33.62,51-62.88,51-47.12,0-71-33.75-71-79.12s24.88-76.75,72.25-76.75c40.5,0,60.38,16.62,60.5,48.88,0,4.88-.5,10.62-1.62,16.25l-83-.88c1,35.38,16.5,57.25,46.12,57.25,14.38,0,26.75-5,38.38-17.5l1.25,.88Zm-85.75-46.88l37.5-1.5c1.12-8.25,1.88-16.75,1.88-23.62,0-16.75-4.75-27-15.88-27-13.88,0-23,17.38-23.5,52.12Z"/><path d="M1816.92,368.31c-14.5,15-30.5,22-50.12,22-26,0-39.75-16.88-39.75-42.12v-100.12h-19.88v-5.12l19.88-4.75v-5.25c0-22.62,12-40.12,35.38-40.12,5.38,0,10.12,.75,14.75,2.5v44.12h37.25v8.62h-37.25v95.75c0,19.88,10.38,30.88,38.38,22l1.38,2.5Z"/><path d="M1950.79,340.31c-8.12,36.88-33.62,51-62.88,51-47.12,0-71-33.75-71-79.12s24.88-76.75,72.25-76.75c40.5,0,60.38,16.62,60.5,48.88,0,4.88-.5,10.62-1.62,16.25l-83-.88c1,35.38,16.5,57.25,46.12,57.25,14.38,0,26.75-5,38.38-17.5l1.25,.88Zm-85.75-46.88l37.5-1.5c1.12-8.25,1.88-16.75,1.88-23.62,0-16.75-4.75-27-15.88-27-13.88,0-23,17.38-23.5,52.12Z"/><path d="M1969.92,380.06c2-14.25,2.62-31,3-46.62h5c13.88,32.62,32.38,51.25,51.75,51.25,11,0,16.88-6.12,16.88-16.75,0-11.88-7.12-18.88-25.5-28l-14.25-7.12c-22.25-11.12-38-24.5-38-50,0-27.5,20.25-47.62,63.38-47.62,16.12,0,31.88,2.5,46,8.38,0,14.38,.88,29.5,2.12,45.75l-5.12,.62c-19-35-37.62-48.12-52.62-48.12-8.88,0-15,4.88-15,14.88,0,13.88,13.88,22.5,24.75,27.62l11.38,5.5c22.75,11.25,42.88,23.38,42.88,53.5s-22,48-61.38,48c-20.62,0-40.62-3.88-55.25-11.25Z"/></g><g><path d="M161.51,365.84c2.73-.77,4.84,2.55,12.48,9.54,5.5,5.04,15.25,13.25,20.55,17.61,3.23,2.66,5.95,4.82,7.34,8.81,1.65,4.74,.37,9.07,0,10.27-2.02,6.52-7.32,9.88-10.27,11.74-3.19,2.01-13.09,8.27-23.49,4.4-10.02-3.73-13.56-14.29-14.68-17.61-2.19-6.53-.48-15.12,2.94-32.29,1.74-8.77,2.85-11.83,5.14-12.48Z"/><path d="M191.6,438.49c2.97-9.94,13.97-13.95,16.15-14.68,2.77-.93,5.64-1.4,19.08,0,25.12,2.62,32.67,6.09,35.23,7.34,7,3.42,11.38,5.56,13.21,10.27,3.57,9.19-5.09,21.64-13.21,27.89-17.95,13.82-49.03,9.52-63.12-7.34-2.01-2.4-10.58-12.66-7.34-23.49Z"/><path d="M473.42,156.67c.92-15.25-7.73-25.94-17.61-38.16-8.74-10.81-18.61-23.01-30.82-22.02-5.21,.42-10.14,3.19-19.08,13.21-8.48,9.5-20.18,25.09-29.36,48.44-17.46,5.85-37.08,11.46-58.71,16.15-18.84,4.08-36.55,6.9-52.84,8.81-7.89-2.79-19.12-7.07-32.29-13.21-15.79-7.36-20.63-10.98-26.42-8.81-11.5,4.33-12.85,26.36-13.21,32.29-.89,14.5,3.14,26.03,5.87,32.29-3.59,6.17-7.09,13.02-10.27,20.55-12.06,28.5-14.77,55.19-14.68,74.86-2.94,7.83-5.87,15.66-8.81,23.49,4.83,1.3,12.06,2.6,20.55,1.47,8.85-1.18,10.13-3.81,22.02-5.87,12.9-2.24,19.77-.61,22.02,0,4.47,1.2,7.95,3,10.27,4.4-5.67,11.62-10.95,20.51-14.68,26.42-7.74,12.26-13.47,19.1-11.74,27.89,.87,4.41,3.23,7.34,4.4,8.81,12.99,16.15,55.04,11.11,61.65,10.27,72.28-9.1,108.42-13.64,121.83-22.02,3.32-2.07,9.58-5.99,16.98-11.82,2.21-10.33,4.48-23.64,5.04-39.55,.85-24.39-3.14-32.07-7.34-36.7-8.63-9.5-22.16-10.54-22.02-16.15,.11-4.35,8.28-4.62,13.21-11.74,2.07-2.98,5.52-9.98,0-29.36-8.07-28.33-23.31-40.96-20.55-44.03,2.97-3.31,25.99,5.33,38.16,24.95,3.15,5.07,10.6,10.06,16.67,52.57,2.11,14.76,3.19,34.23,2.64,45.33s-.53,18.98-3.1,32.7c12.22-14.7,23.15-34.14,26.36-58.68,4.47-34.19-8.24-61.57-14.68-73.39,2.66-3.74,8.13-12.55,8.81-24.95,.46-8.37-1.44-15.08-2.94-19.08,3.95-3.77,13.77-14.19,14.68-29.36Zm-268.61,117.43c-1.69,11.52-8.65,19.05-11.74,22.02-3.08-10.07-4.07-18.1-4.4-23.49-.17-2.79-.19-5.36,1.47-7.34,3.89-4.63,13.49-1.83,14.68-1.47,.41,2.82,.58,6.33,0,10.27Zm127.7-86.6c.83-2.89,8.38-3.97,14.68-2.94,18.36,3.01,31.34,24.79,27.89,29.36-1.42,1.88-4.51-.61-13.21,0-12.07,.85-18.81,6.54-20.55,4.4-1.65-2.02,4.91-6.47,4.4-13.21-.7-9.4-14.4-13.47-13.21-17.61Zm-17.61,76.33c-6.94,7.85-17.75,9.77-20.55,10.27-5.71,1.02-6.62-.11-10.27,1.47-8.18,3.53-10.6,12.22-11.74,11.74-1.17-.49,1.06-9.87,5.87-22.02,6.11-15.44,9.3-23.22,16.15-26.42,3.98-1.86,9.01-1.73,19.08-1.47,6.73,.18,12.29,.86,16.15,1.47-1.82,2.66-4.45,6.68-7.34,11.74-5.39,9.43-4.62,10.14-7.34,13.21Zm74.86,49.91c3.7,11.75,.27,22.36-2.94,32.29-8.12,25.12-25.86,42.42-27.89,41.1-1.67-1.08-2.58-9.58,6.81-42.4,2.54-8.89,4.22-18.45,2.11-21.09-4.22-5.27-10.47-5.19-16.99,1.1-6.55,6.32-9.26,10.45-13.21,11.74-3.48,1.14-9.7-.73-9.54-9.54,.19-10.61,12.78-19.45,23.49-22.02,11.52-2.77,20.39,1.83,22.02-1.47,1.62-3.29-7.18-7.82-10.27-19.08-1.57-5.73-.4-8.59,0-16.15,1.22-22.93-7.63-32.72-2.94-36.7,4.88-4.13,20.27,1.54,24.95,11.74,2.02,4.41,.89,10.83-1.47,23.49-3.2,17.21-5.25,18.44-4.4,24.95,1.34,10.28,7.02,11.68,10.27,22.02Zm58.71-145.31c-3.41,12.99-8.16,16.59-10.27,29.36-1.4,8.46-.77,15.7,0,20.55-3.86-3.67-7.79-7.58-11.74-11.74-7.13-7.5-13.46-14.9-19.08-22.02,7.62-4.99,17.66-12.89,26.42-24.95,8.97-12.35,11.96-22.69,14.68-22.02,3.21,.8,3.77,16.46,0,30.82Z"/></g></svg>