<?xml version="1.0" encoding="UTF-8"?><svg id="a" xmlns="http://www.w3.org/2000/svg" viewBox="0 0 1000 1000"><defs><style>.b,.c,.d{fill:none;}.c,.d{stroke:#3e5b58;stroke-linecap:round;stroke-linejoin:round;}.e,.f{fill:#e6e6e6;}.g{fill:#fff;}.h{fill:#ffbe9f;}.i{fill:#f0a17f;}.j{fill:#91aab8;}.k{fill:#666;}.l{fill:#b9d9eb;}.m{fill:#a5c1d1;}.n{fill:#b28862;}.o{fill:#3e5b58;}.d{stroke-width:3px;}.f{opacity:.4;}</style></defs><path class="f" d="M353,171c-58.27,21.91-142.84,78.67-182,136-57.25,83.82-60.43,174.62-53,214,5.34,28.32,25.44,131.78,93,202,18.19,18.91,75.91,84.28,190,85,48.34,.3,87.47-14.05,152-22,135.66-16.71,211.8,39.6,281,8,54.44-24.86,87.76-86.93,84-148-5.86-95.32-107.81-109.69-145-229-31.95-102.5-15.04-150.24-53-209-61.93-95.86-245.75-82.58-367-37Z"/><g><path class="e" d="M484,414c2.05,0,13,1,12,2-2,2-17-1.49-19.39-1.59,2.45-.3,4.39-.41,7.39-.41Z"/><path class="b" d="M379.87,687.68c.61-12.46,1.92-24.95,3.65-37.45-14.93,28.48-25.23,50.15-18.25,87.25,.7,3.71,1.61,7.54,2.66,11.45h9.56c.63-20.42,1.4-40.84,2.39-61.25Z"/><path class="j" d="M387.51,650.23c5.11-37.08,13.8-74.22,18.09-110.97,4.25-36.43,5.68-91.82,32.4-115.26,0,0-45,1-59,200,0,0-15,113,8,118l20-6"/><path class="h" d="M562.37,415.83c-13.46-1.35-26.93-3.17-40.27-.91-10.66,1.8-24.36,.58-38.12-.16,26.18,5.68,52.54,5.57,78.39,1.07Z"/><path class="l" d="M574.37,419.95c-.19,.36-.44,.7-.67,1.04-1.95,10.12-3.91,20.25-5.86,30.37-8.9,5.38-15.75,13.58-17.21,24.01-12.62,90.21-32.26,182.22-38.86,273.56h167.18c-.09-24.98-.18-49.97-.27-74.95-.2-56.22-13.01-115.87-21.35-171.4-4.59-30.56-10-41.18-23.86-68.43-1.97-3.88-8.47-18.15-58.3-17.32-.02,1.07-.29,2.16-.8,3.12Z"/><path class="h" d="M564.15,430.89c-.43,3.02-.85,6.05-1.28,9.07,1.17-3.08,2.33-6.17,3.5-9.25-.74,.07-1.48,.12-2.22,.18Z"/><path class="l" d="M434.42,548.92c-13.47,27.93-27.49,55.6-41.52,83.26-3.25,6.41-6.41,12.36-9.39,18.05-1.72,12.5-3.04,24.99-3.65,37.45-.99,20.41-1.76,40.83-2.39,61.25h81.1c1.8-109.6,8.2-219.14,18.34-328.41,.19-2.06,.14-4.09-.07-6.08-16.52-.56-32.4,.48-42.42,9.27,28.91,45.09,0,125.22,0,125.22Z"/><path class="l" d="M401.6,539.26c-4.29,36.75-12.97,73.9-18.09,110.97,2.98-5.69,6.14-11.64,9.39-18.05,14.02-27.66,28.04-55.33,41.52-83.26,0,0,28.91-80.13,0-125.22-26.72,23.44-28.57,79.12-32.82,115.55Z"/><path class="e" d="M575,417c-2.37-.47-4.58-1.77-6.95-2.23-1.89,.38-3.78,.73-5.68,1.06,4.27,.43,8.54,.81,12.8,1,0-.23-.15,.4-.17,.17Z"/><path class="e" d="M476.91,420.52c-10.14,109.27-16.55,218.8-18.34,328.41h53.2c6.6-91.34,26.24-183.35,38.86-273.56,1.46-10.43,8.31-18.64,17.21-24.01,1.95-10.12,3.91-20.25,5.86-30.37,.23-.34,.48-.67,.67-1.04,.51-.97,.78-2.05,.8-3.12-4.26-.19-8.53-.57-12.8-1-25.85,4.51-52.2,4.61-78.39-1.07-2.39-.13-4.77-.24-7.15-.32,.21,1.99,.26,4.02,.07,6.08Zm87.24,10.37c.74-.06,1.48-.12,2.22-.18-1.17,3.09-2.34,6.17-3.5,9.25,.43-3.02,.85-6.05,1.28-9.07Z"/><path class="k" d="M551.21,323.78c2.97,9.64,5.91,19.2,7.69,29.16,.74,4.12,6.54,2.82,6.24-1.16-.77-10.02-1.36-20.11-2.92-30.04-1.15-7.29-13.09-4.72-11,2.04Z"/><path class="k" d="M505.66,354.05c3.94,3.85,8.66,6.65,13.31,9.56,4.13,2.58,8.15,5.46,12.98,6.37,2.25,.42,4.01-2.47,2.98-4.36-2.03-3.76-5.43-6.37-8.67-9.09-4.33-3.63-8.6-7.74-13.63-10.38-4.9-2.58-11.61,3.39-6.98,7.91Z"/><path class="o" d="M115.78,385.39c-11.4,5.1-12.48,19.1-2.21,26.62,68.28,49.99,126.23,95.14,175.81,136.39,6.06,5.04,13.21,10.29,21.34,8.07,5.24-1.43,9.59-5.69,13.58-9.73l51.74-52.33c4.93-4.99,5.44-13.28,1.02-17.88-42.21-43.97-93.84-89.53-156.63-136.75-5.51-4.15-12.86-4.5-18.3-.97-26.09,16.93-54.88,32.52-86.36,46.59Z"/><path class="g" d="M157.2,397.66c-7.48,3.54-8.27,13.04-1.6,18.12,45.49,34.68,85.79,67.34,121.6,98.28,4.46,3.86,9.76,7.92,15.78,6.52,3.89-.9,7.12-3.93,10.09-6.81l38.96-37.74c3.77-3.65,4.09-9.82,.65-13.3-32.27-32.64-70.34-65.32-114.79-97.77-3.81-2.78-8.88-2.89-12.62-.36-17.82,12.09-37.2,23.15-58.07,33.03Z"/><path class="n" d="M292.58,520.33c-6.16-3.55-12.93-5.82-19.97-6.7-6.84-.86-15.69,.9-18.99,8.92-3.26,7.91,1.73,15.54,6.09,21.14,35.29,45.31,64.29,31.31,76.29,51.31-3.88,7.26,3-1,14.66-34.66-4.26,12.29-19.36-17.87-28.75-27.64-10.01-10.41-14.31-17.43-32.27-26.78-4.08-2.12-5.05,3.16-2.09,6.57,1.98,2.28,3.36,5.23,5.04,7.85Z"/><path class="m" d="M314.12,576.89c-1.74,20.42,24.29,28,61.69,55.26,48.21,35.14,55.31,60.26,108.45,87.96,16.84,8.78,37.38,15.37,52.75,7.21,9.55-5.07,15.09-14.88,19.66-24.55,4.81-10.17,6.22-18.64,5.07-25.83-4.6-28.94-57.63-45.77-74.21-50.83-38.86-11.85-90.9-34.24-150.74-80.64-9.66,7.22-21.56,18.33-22.68,31.41Z"/><path class="n" d="M581.98,273.91c.34-2.6,.57-5.22,.57-7.91,0-35.85-31.25-64.91-69.81-64.91s-69.81,29.06-69.81,64.91c0,5.98,.94,11.76,2.57,17.26,.06,1.41,.09,2.85,.07,4.36-.2,12.93,.38,25.95,2.92,38.71,4.92,24.82,17.77,47.91,42.08,62.04,2.87,1.67,5.94,3.1,9.08,4.38-.71,8.73-3.04,20.24-10.44,23.07,0,0,36.69,11,73.07,0,0,0-9.76-17.89-14.45-31.27,1.28-1.02,2.63-1.97,3.81-3.06,29.87-27.43,32.45-68.67,30.34-107.58Z"/><path class="o" d="M498,179c-22-6-38.2,2.72-49.39,25.44-34.61,20.56-18.61,83.56,17.61,53.92,.32-.26,.81-.3,1.21-.44,19.56,12.08,40.56,15.08,64.49,11.92,8.17,19.96,40.94,41.34,50.08,37.16,24-11,27.07-49.36,21.87-71.26-5.75-24.17-22.36-44.43-45.07-53.9-30.79-12.84-41.79-3.84-60.79-2.84"/><polygon class="e" points="553.39 423.71 573.69 420.99 562.37 478.83 530.03 504.33 519.67 449.28 553.39 423.71"/><path class="m" d="M643.14,469.54c.19-12.85-2.77-18.68-9.14-29.54-22.35-38.11-72.43,15.25-83.93,37.69-23.4,45.65-41.7,144.25-54.29,190.82-2.51,9.29-5.03,19.15-2.52,28.31,4.39,16.01,35.53,33.46,50.25,23.53,13.21-8.91,60.04-97.88,66.29-112.91,18.25-43.86,32.62-90.19,33.33-137.9Z"/></g><path class="h" d="M312.84,467.7l-5.66,2.02s-1.98-3.84-5.31-5.8l2.21-4.81s2.23-2.81-1.77-4.7l-2.47-1.04s-1.56-1.32-3.28,2.31l-1.82,4.93s-3.26-1.54-7.4-.41l-1.88-4.05c-1.5-4.19-3.38-3.6-3.38-3.6l-3.72,1.33c-2.33,.83-.32,5.23-.32,5.23l1.37,3.84c-4.21,1.42-6.19,5.44-6.19,5.44l-5.52-2.23s-2.38-1.51-3.77,1.43l-.99,2.36s-.8,1.55,2.41,3.07l4.97,2.16s-1.77,2.38-.72,7.78l-5.27,1.88s-3.13,1.03-2.19,3.67l.86,2.4s.24,2.89,3.58,1.69l5.35-1.91s2.07,4.33,5.57,5.79c0,0-3.83,7.4-1.25,8.75l2.42,1.15s2.78,1.37,4.18-2.28l1.93-4.1s3.14,1.94,7.85,.43l1.75,4.88s.46,3.5,3.41,2.44l2.95-1.05s2.55-.46,1.33-3.87l-1.94-5.43s4.52-1.79,6.01-4.95l1.75,.83s5.83,2.76,6.93,.45l1.68-3.13s1.11-1.53-2.68-3.33l-4.5-2.07s2.01-4.65,.41-7.66l5.89-2.11s2.39-1.12,1.5-3.6l-.86-2.4s-.23-2.89-3.41-1.75Zm-11.86,16.2c-1.97,6.01-8.44,9.28-14.45,7.31-6.01-1.97-9.28-8.44-7.31-14.45,1.97-6.01,9.05-8.59,15.05-6.62l2.16,.93c4.65,2.63,6.27,7.55,4.54,12.82Z"/><g><path class="i" d="M702.22,673.31v156.77h1.36c87.35-25.84,117.32-97.58,126.63-156.77h-127.98Z"/><path class="h" d="M702.22,830.08v-156.77h-126.63c9.31,59.19,39.27,130.94,126.63,156.77Z"/><path class="h" d="M574.12,585.25s-6.1,39.87,1.48,88.05h126.63v-168.98s-79.06,80.93-128.1,80.93Z"/><path class="i" d="M831.68,585.25c-49.04,0-128.1-80.93-128.1-80.93h-1.36v168.98h127.98c7.58-48.18,1.47-88.05,1.47-88.05Z"/><path class="m" d="M733.01,630.4c0-10.83,2.77-23.42-7.28-31.95-5.86-4.98-14.37-7.65-22.84-7.81-8.86-.16-18.07,2.53-23.66,8.13-8.12,8.14-6.71,19.18-6.71,28.97,0,6.6,0,13.19,0,19.79h-13.53c0-7.35,0-14.69,0-22.04,0-12.68-2.05-26.99,9.69-37.54,8.08-7.26,21.38-10.75,34.19-10.54,12.24,.2,24.54,3.67,33.01,10.12,14.52,11.06,10.52,27.37,10.52,41.41v18.59h-13.41v-17.13Z"/><path class="l" d="M755.78,646.23h-105.76c-5.89,0-10.71,4.29-10.71,9.54v94.24c0,5.25,4.82,9.54,10.71,9.54h105.76c5.89,0,10.71-4.29,10.71-9.54v-94.24c0-5.25-4.82-9.54-10.71-9.54Z"/><path class="o" d="M685.9,690.3c0-9.39,7.61-17,17-17,9.39,0,17,7.61,17,17,0,6.29-3.42,11.77-8.5,14.71v15.51c0,5.19-4.25,9.44-9.44,9.44-5.19,0-9.44-4.25-9.44-9.44v-16.79c-4.02-3.11-6.61-7.96-6.61-13.43Z"/><path class="d" d="M713.27,531.76s35.49,50.22,105.13,67.63c0,0,8.04,50.22-21.43,136.6"/><path class="d" d="M598.09,720.59s22.1,66.96,94.41,95.75"/></g><path class="h" d="M237.98,378.43l-3.74,1.34s-1.31-2.53-3.5-3.83l1.46-3.18s1.47-1.85-1.17-3.11l-1.63-.69s-1.03-.87-2.17,1.53l-1.2,3.26s-2.15-1.02-4.89-.27l-1.24-2.67c-.99-2.77-2.24-2.38-2.24-2.38l-2.46,.88c-1.54,.55-.21,3.45-.21,3.45l.91,2.53c-2.78,.94-4.09,3.6-4.09,3.6l-3.64-1.47s-1.57-1-2.49,.95l-.65,1.56s-.53,1.03,1.59,2.03l3.28,1.43s-1.17,1.57-.47,5.14l-3.48,1.24s-2.07,.68-1.44,2.42l.57,1.59s.16,1.91,2.36,1.12l3.53-1.26s1.37,2.86,3.68,3.83c0,0-2.53,4.89-.82,5.78l1.6,.76s1.84,.9,2.76-1.51l1.28-2.71s2.07,1.28,5.18,.28l1.15,3.23s.31,2.31,2.25,1.61l1.95-.7s1.68-.3,.88-2.56l-1.28-3.58s2.98-1.18,3.97-3.27l1.15,.55s3.85,1.82,4.57,.3l1.11-2.07s.74-1.01-1.77-2.2l-2.97-1.36s1.33-3.07,.27-5.06l3.89-1.39s1.58-.74,.99-2.38l-.57-1.59s-.15-1.91-2.25-1.16Zm-7.84,10.7c-1.3,3.97-5.57,6.13-9.54,4.83-3.97-1.3-6.13-5.57-4.83-9.54,1.3-3.97,5.98-5.67,9.94-4.37l1.43,.62c3.07,1.74,4.14,4.99,3,8.47Z"/><path class="l" d="M276.93,428.83l-7.9,.67s-1.24-5.57-4.81-9.19l4.45-5.39s3.8-2.83-.67-6.6l-2.8-2.16s-1.55-2.21-4.97,1.84l-3.99,5.68s-3.64-3.07-9.31-3.03l-1.04-5.8c-.5-5.85-3.1-5.74-3.1-5.74l-5.2,.44c-3.25,.28-2.17,6.56-2.17,6.56l.45,5.36c-5.86,.39-9.73,4.86-9.73,4.86l-6.29-4.7s-2.52-2.73-5.3,.56l-2.06,2.68s-1.55,1.71,2.04,4.74l5.61,4.43s-3.07,2.44-3.54,9.68l-7.36,.62s-4.34,.26-4.03,3.94l.28,3.36s-.66,3.76,3.99,3.37l7.47-.63s1.18,6.23,5.15,9.27c0,0-7.38,8.15-4.54,10.75l2.7,2.28s3.09,2.68,6.1-1.5l3.85-4.58s3.35,3.53,9.87,3.2l.58,6.82s-.59,4.62,3.52,4.27l4.11-.35s3.4,.27,3-4.49l-.64-7.58s6.37-.76,9.34-4.28l1.95,1.64s6.51,5.49,8.69,2.91l3.2-3.43s1.94-1.58-2.29-5.15l-5.04-4.15s4.14-5.26,3.11-9.64l8.23-.7s3.42-.62,3.13-4.08l-.28-3.36s.68-3.77-3.76-3.39Zm-20.6,16.66c-4.54,7-13.9,9-20.9,4.45-7-4.54-9-13.9-4.45-20.9,4.54-7,14.44-7.91,21.44-3.37l2.44,1.92c5.05,4.93,5.45,11.75,1.47,17.89Z"/><path class="c" d="M243.89,417.51s19.81-1.68,19.93,18.38"/><path class="c" d="M239.83,455.84s-14.87-.34-14.95-13.43"/></svg>