<?xml version="1.0" encoding="UTF-8"?><svg id="Layer_1" xmlns="http://www.w3.org/2000/svg" xmlns:xlink="http://www.w3.org/1999/xlink" viewBox="0 0 200 200"><defs><style>.cls-1{fill:none;}.cls-2{clip-path:url(#clippath);}.cls-3{fill:#ea6530;}.cls-4{fill:#fff;}.cls-5{fill:#97ddd1;}.cls-6{fill:#1a3c40;}.cls-7{fill:#3d1b24;}.cls-8{opacity:.55;}</style><clipPath id="clippath"><rect class="cls-1" x="2.24" y="23.46" width="195.52" height="153.09"/></clipPath></defs><g class="cls-8"><g class="cls-2"><path class="cls-3" d="M37.7,94.37c19.58,0,35.46-15.87,35.46-35.46S57.28,23.46,37.7,23.46,2.24,39.33,2.24,58.91s15.87,35.46,35.46,35.46"/><path class="cls-5" d="M160.43,123.6V52.68H73.46c-.1,0-.2,0-.3,0-19.58,0-35.46,15.88-35.46,35.46s15.88,35.46,35.46,35.46c.1,0,.2,0,.3,0h0s86.98,0,86.98,0Z"/><path class="cls-7" d="M72.6,52.71c-19.33,.3-34.9,16.05-34.9,35.44,0,2.12,.2,4.2,.55,6.22,19.33-.3,34.9-16.05,34.9-35.44,0-2.12-.2-4.2-.55-6.21"/><path class="cls-6" d="M82.84,130.14H47.7c.16,19.34,15.81,34.98,35.15,35.15v-35.15Z"/><path class="cls-3" d="M123.11,176.52h38.09c.37,.01,.74,.03,1.11,.03,19.58,0,35.46-15.88,35.46-35.46s-15.88-35.46-35.46-35.46c-.1,0-.2,0-.3,0h0s-38.89,0-38.89,0v70.89Z"/></g><rect class="cls-7" x="123.11" y="105.63" width="37.33" height="17.97"/></g><g><path class="cls-4" d="M90.4,87.6l9.6-7.68,9.6,7.68,7.31-7.31-15.19-28.05c-.68-1.26-2.75-1.26-3.43,0l-15.19,28.05,7.31,7.31Z"/><path class="cls-4" d="M152.4,145.82l-33.55-61.95-8.95,8.95-9.89-7.91-9.89,7.91-8.95-8.95-33.55,61.95c-.33,.61-.31,1.34,.04,1.93,.35,.59,.99,.95,1.68,.95h101.37c.69,0,1.32-.36,1.68-.95,.35-.59,.37-1.32,.04-1.93Z"/><path class="cls-4" d="M83.11,72.08l-10.73-16.09c-.37-.56-1.04-.91-1.68-.87-.67,.02-1.29,.39-1.63,.97l-27.29,46.79c-.35,.6-.35,1.35,0,1.95,.35,.61,.99,.98,1.69,.98h21.37l18.27-33.73Z"/><path class="cls-4" d="M158.22,102.88l-27.29-46.79c-.34-.58-.95-.95-1.63-.97-.64,0-1.31,.31-1.68,.87l-10.73,16.09,18.27,33.73h21.37c.7,0,1.34-.37,1.69-.98s.35-1.35,0-1.95Z"/></g></svg>