<?xml version="1.0" encoding="UTF-8"?><svg id="a" xmlns="http://www.w3.org/2000/svg" viewBox="0 0 1000 1000"><defs><style>.b{fill:#ffbe9f;}.c{fill:#f0a17f;}.d{fill:#b9d9eb;}.e{fill:#a5c1d1;}.f{fill:#b28862;}.g{fill:#3e5b58;}.h{fill:none;stroke:#3e5b58;stroke-linecap:round;stroke-linejoin:round;stroke-width:3px;}.i{fill:#e6e6e6;opacity:.4;}</style></defs><path class="i" d="M113.72,647.43c-38.31-96.35-19.67-148.71-4.92-190,30.19-84.5,81.96-125.14,116.85-142.06,59.9-29.04,98.31-42,165.28-51.26,103.97-14.38,141.2-66.08,203.21-73.99,90.8-11.58,165.15,17.89,231.44,87.13,65.74,68.67,73.04,100.49,95.3,177.89,28.94,100.62,12.39,227.67-72.37,267.23-40.99,19.13-92.81,28.65-175.4,29.56-71.52,.79-107.1,24.51-149.71,44.8-44.82,21.35-197.91,35.98-269.58,1.83-38.1-18.15-94.03-35.25-140.1-151.14Z"/><g><path class="d" d="M825.89,494.8c-64.76-9.96-119.14,2.85-180.04,1.68l-20.58,23.3-41.84,55.42,84.58,86.81h266.49s-76.68-116.92-108.61-167.22Z"/><path class="e" d="M825.89,494.8c-4.11-6.47-7.52-11.9-9.89-15.78-20.75-33.96-50.58-83.53-68.46-84.16-14.72-.52-57.93,52.09-57.93,52.09l-43.76,49.53c60.9,1.16,115.28-11.65,180.04-1.68Z"/><path class="b" d="M666.83,455.51c-25.04,3.6-54.4,12.22-87.98,12.65-31.98,.41-63.29-26.08-100.96-28.46-18.18-1.14-48.24,5.18-80.45,15.5-6.26,7.56-11.5,13.69-15.34,17.76l-125.19,137.85-18.19,65.89H796.25s-106.79-179.26-129.43-221.2Z"/><path class="c" d="M477.89,439.7c37.67,2.37,68.97,28.87,100.96,28.46,33.58-.43,62.93-9.05,87.98-12.65-1.72-3.18-2.97-5.6-3.63-7.07-9.43-20.75-88.67-158.47-111.3-162.24-19.76-3.29-111.4,117.05-154.45,169.01,32.21-10.33,62.27-16.65,80.45-15.5Z"/><path class="d" d="M547.29,229.96c.1-23.01,.83-45.63,.83-45.63,35.84-1.89,55.29,12.66,71.69,15.09,16.4,2.43,47.16-3.77,47.16-3.77-28.3,18.87-31.33,23.23-31.33,23.23l50.2,37.14c-37.73,1.89-71.69,0-83.01-1.89-11.32-1.89-35.84-13.21-35.84-13.21l-19.69-10.97Z"/><line class="h" x1="548.11" y1="168.9" x2="547.29" y2="322.05"/><path class="d" d="M490.66,691.31s-47.88-78.22-78.41-129.55c-22.96-4.81-55.67-13.64-78.71-12.61-46.4,2.07-87.53,18.18-137.19,23.39-52.19,60.94-99.12,118.76-99.12,118.76H490.66Z"/><path class="e" d="M412.25,561.77c-1.27-2.14-2.53-4.25-3.73-6.29-30.18-50.93-50.94-120.74-75.46-122.62-12.97-1-78.15,71.31-136.7,139.69,49.66-5.21,90.79-21.32,137.19-23.39,23.04-1.03,55.75,7.8,78.71,12.61Z"/></g><g><g><path class="f" d="M471.34,390.34s-19.02-33.95-23.65-41.16c-4.63-7.22-16.68-35.89-17.11-37.02-.43-1.13,8.3-14.7,6.35-15.17-1.95-.46-4.11,7.15-6.19,6.24-2.08-.91-8.15-19.25-9.34-18.34-2.22,1.7,3.27,11.38,2.09,11.99-1.18,.61-4.76-10.65-7.08-10.31-2.32,.33,4.41,10.32,3.77,11.2-.65,.88-7.64-8.53-8.91-6.52-.69,1.09,6.43,8.21,5.06,8.88-1.37,.67-7.7-3.93-8.37-2.6-.67,1.33,5.85,3.14,7.81,6.72,1.95,3.57,5.27,5.12,6.65,11.74,1.38,6.62,3.44,30.57,10.51,42.52,7.07,11.95,22.61,38.4,22.61,38.4l15.79-6.56Z"/><path class="f" d="M555.64,554.16s-1.55-1.93-2.01-2.61c-.55-.8-1.99-3.32-1.99-3.32,0,0-4.63-9.02-3.94-9.31,.69-.29,2.35,.82,2.83,1.27,.48,.46,1.09,.94,1.57,1.4,.48,.46,1.22,.48,1.83-.08,.61-.56-.91-2.79-1.59-3.46-2.12-2.08-8.91-6.5-9.61-7-.83-.59-5.98-17.71-8.21-23.44h0c-3.37-9.48-6.37-19.4-6.72-20.4l-2.13-43.05-16.08-5.36s1.69,47.81,2.05,50.19c.17,1.13,9.69,22.5,9.7,22.5,5.35,10.23,10.09,19.22,10.96,20.98,0,0,1.17,5.94,1.69,9.77,.52,3.83,2.54,7.14,2.85,8.19,.05,.16,.92,3.84,3.57,7.65,2.29,3.29,1.63-.9,1.63-.9,0,0-3.14-6.87-2.56-7.03,.45-.13,1.94,3.73,4.44,7.39,.64,.94,1.28,1.87,1.87,2.72,1.55,2.22,3.36,1.88,2.11-.71-.44-.92-1.21-2.42-1.92-3.41-.76-1.07-1.11-2.3-1.61-3.3-.99-1.98-1.74-3.42-1.63-3.41,.14,0,.22-.53,.93,.44,.86,1.18,2.12,4.09,3.51,5.72,.79,.92,2.32,2.96,2.32,2.96,0,0,2.84,3.02,3.06,2.9,1.15-.65-.27-3.4-1.51-4.52-.42-1.12-2.09-3.21-2.09-3.21,0,0-2.43-5.01-1.72-5.37,.58-.3,8.71,10.54,9.81,9.8,.9-.6-1.4-3.97-1.4-3.97Z"/><path class="g" d="M534.48,378.43c-2.45-9.07-6.56-17.5-13.2-24.57-5.71-6.09-15.52-7.46-23.3-5.02-24.71,7.76-17.55,41.38-29.3,58.93-3.59,5.36-7.97,10.19-11.21,15.77-11.95,20.61,4.55,46.58,24.2,55.14,13.63,5.94,32.11,5.94,43-5.51,5.68-5.97,8.91-13.94,10.45-22.04,2.18-11.49,2.01-23.91,2.46-35.57,.48-12.41,.17-25.07-3.09-37.13Z"/><path class="f" d="M498.24,384.28s-.08,.44-.22,1.18c-.66,3.58-3.22,15.44-4.95,18.7-2.09,3.94,7.15,16.51,16.05,14.98,2.65-.46-2.24-11.55-2-12.72,.45-2.25,1.06-5.32,1.68-8.46,.35-1.77,.71-3.57,1.04-5.27,.95-4.81,1.73-8.74,1.73-8.74l-13.33,.33Z"/><path class="f" d="M507.21,354.04s-6.28-.72-10.22,4.36c-3.94,5.08-8.18,20.8,1.6,29.35,9.78,8.55,19.45-1.13,20.88-11.38,1.43-10.26,1.99-22.69-12.26-22.32Z"/><path class="g" d="M507.91,352.36s-8.39,14.95-14.4,15.64c-6,.69-6.79,8.63-6.79,8.63,0,0,2.15-18.3,8.09-21.83,5.94-3.53,13.1-2.44,13.1-2.44Z"/><path class="f" d="M533.36,724.6c-2.33-1.71-4.21-2.84-11.65-6.43-.49-.23-2.25-1.36-2.89-1.74-1.62-.99-3.24-2.54-4.64-4.09-1.75-1.94-2.3-9.49-2.46-13.13h0s4.73-48.17,8.92-91.14h0c-7.22,3.49-14.34,4.57-20.9,4.3-.99,3.32-4.01,13.95-4.46,20.77-.53,8.14,5.86,66.28,5.9,66.65,.24,4.55,.43,10.83-.12,13.62-.49,2.48-3.22,7.58-1.97,9.91,1.25,2.33,2.68,2.92,2.68,2.92l32.42,.52c1.77,.03,.6-1.11-.82-2.15Z"/><path class="f" d="M458.53,690.19l32.63-78.96c-13.45-2.94-22.92-10.42-22.92-10.42h0c-.33,2.11-.72,4.05-1.21,5.78-2.79,9.93-13.37,25.26-14.98,38.08-1.59,12.69-6.46,45.93-6.57,46.66-.71,3.91-2.28,11.2-4.53,14.12-1.05,1.37-2.98,3.1-4.24,5.57-1.97,3.85-.88,9.58,.57,12.73,.74,1.62-.05,1.62,1.64,2.14,5.02,1.55,10.36-1.06,12.5-5.86,1.19-2.68,2.24-6.26,2.45-10.76,.32-6.85,1.91-12.3,3.14-15.6h.06l1.44-3.48h0Z"/><path class="d" d="M526.18,505.22s1.07-58.7,0-64.53c-1.07-5.83-10.01-29.54-12.15-31.88-2.14-2.33-20.75-4.66-20.75-4.66,0,0-14.9-.95-20.8,5.47-5.9,6.41,13.08,57.15,14.15,65.31,1.07,8.16-5.47,29.87-5.47,29.87v.42c-3.52,6.04-9.14,16.68-10.94,26.04-1.92,10.05-.07,35.07-.78,55.16-.19,5.25-.55,10.17-1.2,14.4h0s9.47,7.48,22.92,10.42c2.71,.59,5.59,1,8.58,1.12,6.56,.27,13.68-.8,20.9-4.29h0s14.96-76.01,5.54-102.84Z"/><path class="e" d="M466.08,379.34s21.04,22.58,24.17,31.68c3.13,9.1-3.05,22.12-11.58,22.68-8.53,.57-27.52-40.07-27.52-40.07l14.93-14.29Z"/><path class="c" d="M518.81,716.41c-8.57,2.2-14.91,.7-18.45-.72-.91,2.59-2.13,5.83-1.48,7.7,.79,2.29,1.91,2.81,2.9,2.83,7.83,.2,28.68,.48,34.65,.56,.83,.01,1.29-.96,.76-1.6-1.48-1.76-17.73-8.38-18.37-8.77Z"/><path class="c" d="M452.41,717.52c-7.79,1.42-12.97-3.13-15.67-6.53-1.98,3.86-2.95,9.61-1.49,12.78,1.28,2.79,5.03,2.71,7.98,2.82,3.12,.12,5.53-1.61,7.08-4.33,.72-1.27,1.47-2.84,2.09-4.74Z"/></g><path class="h" d="M483.72,508.25s11.58,11.8,24.92,14.97c0,0,13.06-9.52,13.64-14.97"/></g></svg>