<?xml version="1.0" encoding="utf-8"?>
<!-- Generator: Adobe Illustrator 26.0.3, SVG Export Plug-In . SVG Version: 6.00 Build 0)  -->
<svg version="1.1" id="Layer_1" xmlns="http://www.w3.org/2000/svg" xmlns:xlink="http://www.w3.org/1999/xlink" x="0px" y="0px"
	 viewBox="0 0 160 160" style="enable-background:new 0 0 160 160;" xml:space="preserve">
<style type="text/css">
	.st0{fill:#B28862;}
	.st1{fill:#916F4F;}
	.st2{fill:#BAD9EA;}
	.st3{fill:#F0A17F;}
	.st4{fill:#FFBE9F;}
	.st5{fill:#A5C1D1;}
	.st6{fill:#B9D9EB;}
	.st7{fill:#3E5B58;}
	.st8{fill:none;stroke:#3E5B58;stroke-width:1.5299;stroke-linecap:round;stroke-linejoin:round;}
</style>
<g>
	<path class="st0" d="M17.1,125.9c0,5.9,6.1,10.7,13.5,10.7h0.8c8.9,0.2,17.8,1.7,26.3,4.4l11.8,4.1c7,2.4,16.6,4.4,21.3,4.4
		s13.4-3.6,19.3-8.1l39.6-29.7c5.9-4.5,9.3-9.9,7.5-12.1c-1.8-2.2-8.5-0.9-14.9,2.8l-10.1,6c-6.4,3.8-17.7,6.9-25.1,6.9l-76.5-0.1
		C23.2,115.2,17.1,120.1,17.1,125.9z"/>
	<path class="st1" d="M17.1,114.9c0-4.1,6.1-7.4,13.5-7.3l14.2,0l6.9-3c5.6-2.4,11.2-5.2,17.5-3.6c3.4,0.8,6.5,2.7,9.5,4.5
		c1.5,0.9,3,1.8,4.6,2.6c1.1,0.6,3.4,2.4,4.6,2.4h22.1c7.4,0,13.5,2.7,13.5,5.9c0,3.2-6.1,5.9-13.5,5.9H30.6
		C23.2,122.2,17.1,118.9,17.1,114.9z"/>
	<rect x="2.3" y="102" class="st2" width="36.9" height="40.8"/>
	<path class="st2" d="M58.1,42.3c1.4-9.1,7.4-17,17.6-16.3c2.1,0.2,4.3,0.6,6.3,1.3l1-2.2c7.7-15,29.1-19.5,42.3-8.7
		c2.3,2,4.2,4.4,5.6,7.2c2.6,5.5,3.3,11.6,1.8,17.5l2.7,1.1c0,0,13.9,5.5,12.8,19.4S135.8,79,127.4,79h-16.4l-31.3,0.3h-2
		c-8.3,0.1-16.6,0.2-24.8-0.3c-3.4-0.2-6.9-0.6-10-2.2c-3.6-2-6.3-5.2-7.6-9.2c-1.3-3.9-1.4-8.1-0.4-12c0.8-3.4,2.4-6.5,4.7-9.1
		c4.5-4.9,10.2-5,16.3-4.3L58.1,42.3z"/>
	<path class="st3" d="M95,68.9v32.5h0.3c18.1-5.4,24.3-20.2,26.3-32.5L95,68.9z"/>
	<path class="st4" d="M95,101.4V68.9H68.8C70.7,81.2,76.9,96,95,101.4z"/>
	<path class="st4" d="M68.5,50.6c-0.7,6.1-0.6,12.2,0.3,18.3H95V33.8C95,33.8,78.6,50.6,68.5,50.6z"/>
	<path class="st3" d="M121.9,50.6c-10.2,0-26.6-16.8-26.6-16.8H95v35.1h26.6C122.5,62.8,122.6,56.7,121.9,50.6z"/>
	<path class="st5" d="M101.4,60c0-2.2,0.6-4.9-1.5-6.6c-1.4-1.1-3-1.6-4.7-1.6c-1.8-0.1-3.6,0.5-4.9,1.7c-1.7,1.7-1.4,4-1.4,6
		c0,1.4,0,2.7,0,4.1h-2.8c0-1.5,0-3,0-4.6c0-2.6-0.4-5.6,2-7.8c1.7-1.5,4.4-2.2,7.1-2.2c2.4,0,4.8,0.7,6.8,2.1
		c3,2.3,2.2,5.7,2.2,8.6v3.9h-2.8L101.4,60z"/>
	<path class="st6" d="M106.2,63.3H84.2c-1.2-0.1-2.1,0.8-2.2,2v19.6c0.1,1.2,1.1,2,2.2,2h21.9c1.2,0.1,2.1-0.8,2.2-2V65.2
		C108.3,64.1,107.3,63.2,106.2,63.3z"/>
	<path class="st7" d="M91.7,72.4c0-1.9,1.6-3.5,3.5-3.5c1.9,0,3.5,1.6,3.5,3.5c0,1.3-0.7,2.4-1.8,3.1v3.2c0,1.1-0.9,2-2,2
		c-1.1,0-2-0.9-2-2v-3.5C92.2,74.5,91.7,73.5,91.7,72.4z"/>
	<path class="st8" d="M97.3,39.5c5.5,7,13.2,11.9,21.8,14c0,0,1.7,10.4-4.4,28.3"/>
	<path class="st8" d="M73.4,78.7C77,87.7,84,94.9,93,98.6"/>
</g>
</svg>
