<?xml version="1.0" encoding="utf-8"?>
<!-- Generator: Adobe Illustrator 26.0.3, SVG Export Plug-In . SVG Version: 6.00 Build 0)  -->
<svg version="1.1" id="Layer_1" xmlns="http://www.w3.org/2000/svg" xmlns:xlink="http://www.w3.org/1999/xlink" x="0px" y="0px"
	 viewBox="0 0 160 160" style="enable-background:new 0 0 160 160;" xml:space="preserve">
<style type="text/css">
	.st0{fill:none;stroke:#3E5B58;stroke-width:3.1169;stroke-linecap:round;stroke-linejoin:round;}
	.st1{fill:#3E5B58;}
	.st2{fill:#FBBDA0;}
	.st3{fill:#F0A17F;}
	.st4{fill:#DB9374;}
	.st5{fill:#BAD9EA;}
	.st6{fill:#A5C1D1;}
	.st7{fill:#91AAB8;}
</style>
<g>
	<path class="st0" d="M144.3,89.4c6.1,43.8-40.7,60.9-73.9,52.1"/>
	<polygon class="st1" points="83.4,131.1 84.9,133.8 71.6,141.5 80.3,154.2 77.8,155.9 67.2,140.5 	"/>
	<path class="st0" d="M14.6,79.4c-8.1-41.2,30-67.6,62.4-61.5"/>
	<polygon class="st1" points="65.1,29.3 63.3,26.8 75.8,17.9 66.1,6 68.5,4.1 80.4,18.6 	"/>
	<polyline class="st2" points="81.6,71.9 81.6,71.9 102.5,59.9 102.5,97.5 81.6,109.5 81.6,71.9 	"/>
	<polyline class="st3" points="102.5,59.9 81.6,71.9 60.8,59.9 81.6,47.9 102.5,59.9 	"/>
	<polygon class="st4" points="60.8,97.5 81.6,109.5 81.6,71.9 60.8,59.9 	"/>
	<polyline class="st5" points="37.7,109.9 37.7,109.9 58.5,97.9 58.5,124.2 37.7,136.3 37.7,109.9 	"/>
	<polyline class="st6" points="58.5,97.9 37.7,109.9 16.8,97.9 37.7,85.8 58.5,97.9 	"/>
	<polygon class="st7" points="16.8,124.2 37.7,136.3 37.7,109.9 16.8,97.9 	"/>
	<polyline class="st5" points="125.6,34.3 125.6,34.3 146.5,22.3 146.5,71.2 125.6,83.2 125.6,34.3 	"/>
	<polyline class="st6" points="146.5,22.3 125.6,34.3 104.8,22.3 125.6,10.2 146.5,22.3 	"/>
	<polygon class="st7" points="104.8,71.2 125.6,83.2 125.6,34.3 104.8,22.3 	"/>
</g>
</svg>
