<svg width="906" height="778" viewBox="0 0 1000 600" xmlns="http://www.w3.org/2000/svg" xml:space="preserve" style="fill-rule:evenodd;clip-rule:evenodd;stroke-miterlimit:2">
<g opacity="0.4"><path d="m826.487 729.267-116.958 68.201 120.874 70.131 116.959-68.201-120.875-70.131zM1306.77 728.52l116.96 67.86 117-68.226-116.96-67.859-117 68.225z" style="fill:none;stroke:#71AFD4;stroke-width:1px" transform="matrix(.4686 0 0 .4686 0 23.055)"/><path d="m1066.59 868.576-119.228-69.178-116.959 68.201 119.326 69.232 116.941-68.19 116.86 67.804 119.33-69.581-116.96-67.859-119.31 69.571zM709.486 661.383l-116.958 68.202 117.001 67.883 116.958-68.201-117.001-67.884z" style="fill:none;stroke:#71AFD4;stroke-width:1px" transform="matrix(.4686 0 0 .4686 0 23.055)"/><path d="m949.729 936.831 116.861 67.799 116.94-68.185-116.86-67.804-116.941 68.19zM709.442 522.597l-117.001-67.883-119.281 69.554 117.001 67.884 119.281-69.555zM590.161 592.152l-116.959 68.201 119.326 69.232 116.958-68.202-119.325-69.231z" style="fill:none;stroke:#71AFD4;stroke-width:1px" transform="matrix(.4686 0 0 .4686 0 23.055)"/><path d="m473.16 524.268-116.958 68.201 117 67.884 116.959-68.201-117.001-67.884zM1185.9 799.005l116.96 67.859 120.87-70.484-116.96-67.86-120.87 70.485zM1300.67 177.84l119.39-69.618-117.03-67.877-119.37 69.605 117.01 67.89z" style="fill:none;stroke:#71AFD4;stroke-width:1px" transform="matrix(.4686 0 0 .4686 0 23.055)"/><path d="m1419.89 247.012 119.41-69.63-119.24-69.16-119.39 69.618 119.22 69.172zM1183.66 109.95l119.37-69.605-117.01-67.864-119.35 69.593 116.99 67.876zM1066.67 42.074 947.342-27.158 830.338 41.069 949.663 110.3l117.007-68.226z" style="fill:none;stroke:#71AFD4;stroke-width:1px" transform="matrix(.4686 0 0 .4686 0 23.055)"/><path d="m1536.85 314.871 119.43-69.642-116.98-67.847-119.41 69.63 116.96 67.859zM1777.06 590.347l117-68.225-116.96-67.86-117 68.226 116.96 67.859zM1423.77 660.295l116.96 67.859 119.33-69.581-116.96-67.859-119.33 69.581z" style="fill:none;stroke:#71AFD4;stroke-width:1px" transform="matrix(.4686 0 0 .4686 0 23.055)"/><path d="m1543.1 590.714 116.96 67.859 117-68.226-116.96-67.859-117 68.226zM1657.82 385.056l119.45-69.653-120.99-70.174-119.43 69.642 120.97 70.185zM1660.1 522.488l117-68.226-119.28-69.206-117 68.226 119.28 69.206z" style="fill:none;stroke:#71AFD4;stroke-width:1px" transform="matrix(.4686 0 0 .4686 0 23.055)"/><path d="m1419.85 383.096 120.97 70.186 117-68.226-120.97-70.185-117 68.225zM830.369 315.973l-117.001-67.884-116.958 68.202 117 67.883 116.959-68.201z" style="fill:none;stroke:#71AFD4;stroke-width:1px" transform="matrix(.4686 0 0 .4686 0 23.055)"/><path d="m947.37 383.856-117.001-67.883-116.959 68.201 117.001 67.883 116.959-68.201zM709.442 522.597l-119.281 69.555 119.325 69.231 119.281-69.554-119.325-69.232zM1183.67 246.066l-117-67.885-116.998 68.223 117.008 67.885 116.99-68.223z" style="fill:none;stroke:#71AFD4;stroke-width:1px" transform="matrix(.4686 0 0 .4686 0 23.055)"/><path d="m713.41 384.174-120.969 70.54 117.001 67.883 120.969-70.54-117.001-67.883z" style="fill:none;stroke:#71AFD4;stroke-width:1px" transform="matrix(.4686 0 0 .4686 0 23.055)"/><path d="m949.736 521.289-119.325-69.232-120.969 70.54 119.325 69.232 120.969-70.54zM947.37 383.856l119.22 69.173 119.3-69.565-119.22-69.173-119.3 69.565z" style="fill:none;stroke:#71AFD4;stroke-width:1px" transform="matrix(.4686 0 0 .4686 0 23.055)"/><path d="m947.37 383.856-116.959 68.201 119.325 69.232 116.934-68.186 116.86 67.8 119.32-69.581-116.96-67.858-119.3 69.565-119.22-69.173z" style="fill:none;stroke:#71AFD4;stroke-width:1px" transform="matrix(.4686 0 0 .4686 0 23.055)"/><path d="m1183.53 520.903-116.86-67.8-116.934 68.186 116.854 67.8 116.94-68.186zM945.768 659.713l120.822 70.101 120.9-70.5-120.82-70.101-120.902 70.5z" style="fill:none;stroke:#71AFD4;stroke-width:1px" transform="matrix(.4686 0 0 .4686 0 23.055)"/><path d="m1066.59 589.089-116.854-67.8-120.969 70.54 117.001 67.884 120.902-70.5 120.82 70.101 117-68.225-120.96-70.186-116.94 68.186zM1304.49 591.089l119.33-69.582-120.97-70.185-119.32 69.581 120.96 70.186zM1183.66 109.95l-116.99-67.876v.001-.001L949.663 110.3l116.987 67.877 117.01-68.227z" style="fill:none;stroke:#71AFD4;stroke-width:1px" transform="matrix(.4686 0 0 .4686 0 23.055)"/><path d="m1183.66 29.95-116.99-67.876v.001-.001L949.663 30.301l116.987 67.876 117.01-68.227zM1419.85 383.096l117-68.225-116.96-67.859-117 68.226 116.96 67.858z" style="fill:none;stroke:#71AFD4;stroke-width:1px" transform="matrix(.4686 0 0 .4686 0 23.055)"/><path d="m1185.89 383.464 116.96 67.858 117-68.226-116.96-67.858-117 68.226zM1302.89 315.238l117-68.226-119.22-69.172-117 68.226 119.22 69.172zM1066.67 42.075v-.002.002z" style="fill:none;stroke:#71AFD4;stroke-width:1px" transform="matrix(.4686 0 0 .4686 0 23.055)"/><path d="m1066.67 178.181 117 67.885 117-68.226-117.01-67.89-117.01 68.227L949.663 110.3l-116.992 68.221 117.001 67.883 116.998-68.223zM1423.82 521.507l117-68.225-120.97-70.186-117 68.226 120.97 70.185zM947.362 799.398l119.228 69.178 119.31-69.571-119.23-69.177-119.308 69.57zM1543.1 590.714l117-68.226-119.28-69.206-117 68.225 119.28 69.207z" style="fill:none;stroke:#71AFD4;stroke-width:1px" transform="matrix(.4686 0 0 .4686 0 23.055)"/><path d="m1066.59 729.814-120.822-70.101-119.281 69.554 120.875 70.131 119.308-69.57 119.23 69.177 120.87-70.485-119.28-69.206-120.9 70.5z" style="fill:none;stroke:#71AFD4;stroke-width:1px" transform="matrix(.4686 0 0 .4686 0 23.055)"/><path d="m828.767 591.829-119.281 69.554 117.001 67.884 119.281-69.554-117.001-67.884zM1304.49 591.089l119.28 69.206 119.33-69.581-119.28-69.207-119.33 69.582z" style="fill:none;stroke:#71AFD4;stroke-width:1px" transform="matrix(.4686 0 0 .4686 0 23.055)"/><path d="m1187.49 659.314 119.28 69.206 117-68.225-119.28-69.206-117 68.225zM356.202 592.469l-118.648 69.187 117.001 67.883 118.647-69.186-117-67.884zM709.529 797.468l-118.648 69.186 120.875 70.131 118.647-69.186-120.874-70.131z" style="fill:none;stroke:#71AFD4;stroke-width:1px" transform="matrix(.4686 0 0 .4686 0 23.055)"/><path d="M592.528 729.585 473.88 798.771l117.001 67.883 118.648-69.186-117.001-67.883zM239.201 524.587l-118.648 69.185 117.001 67.884 118.648-69.187-117.001-67.882zM830.403 867.599l-118.647 69.186 119.325 69.225 118.648-69.179-119.326-69.232zM948.082 1073.9l118.508 68.75 118.59-69.13-118.51-68.77-118.588 69.15z" style="fill:none;stroke:#71AFD4;stroke-width:1px" transform="matrix(.4686 0 0 .4686 0 23.055)"/><path d="m1066.54 1004.68 118.51 68.75 117.14-68.03-118.52-68.762-117.13 68.042z" style="fill:none;stroke:#71AFD4;stroke-width:1px" transform="matrix(.4686 0 0 .4686 0 23.055)"/><path d="m1183.2 936.638 118.51 68.762 119.48-69.879-118.52-68.765-119.47 69.882zM473.16 524.268l-117.001-67.883-116.958 68.202 117.001 67.882 116.958-68.201zM475.44 386.831l-119.325-69.233-119.282 69.556 119.326 69.231 119.281-69.554zM1777.06 590.347l118.68 68.859 117.01-68.223-118.69-68.861-117 68.225zM1657.82 385.056l119.28 69.206 119.47-69.666-119.3-69.193-119.45 69.653z" style="fill:none;stroke:#71AFD4;stroke-width:1px" transform="matrix(.4686 0 0 .4686 0 23.055)"/><path d="m1894.06 522.122 119.49-69.679-116.98-67.847-119.47 69.666 116.96 67.86z" style="fill:none;stroke:#71AFD4;stroke-width:1px" transform="matrix(.4686 0 0 .4686 0 23.055)"/><path d="m2012.75 590.983 119.52-69.687-118.72-68.853-119.49 69.679 118.69 68.861zM119.681 594.278l119.518-69.689-118.712-68.851L.994 525.416l118.687 68.862zM1540.73 728.154l118.68 68.852 119.33-69.578-118.68-68.855-119.33 69.581zM1302.86 866.864l118.66 68.848 120.88-70.483-118.67-68.849-120.87 70.484z" style="fill:none;stroke:#71AFD4;stroke-width:1px" transform="matrix(.4686 0 0 .4686 0 23.055)"/><path d="m1423.73 796.38 118.67 68.849 117.01-68.223-118.68-68.852-117 68.226zM1660.06 658.573l118.68 68.855 117-68.222-118.68-68.859-117 68.226zM949.736 501.289l-119.325-69.232 116.959-68.201 119.3 69.247-116.934 68.186zM830.411 432.057v20M949.736 501.289v20M1066.67 433.103v20M949.663 90.3l-116.992 68.221 117.001 67.883 116.998-68.223L949.663 90.3zM832.671 158.521v20M949.672 226.404v20M1066.94 98.177l-.27 80.004M1183.67 246.066l-117 68.225 119.22 69.173 117-68.226-119.22-69.172zM949.663 30.301V90.3M1183.66 29.95v80" style="fill:none;stroke:#71AFD4;stroke-width:1px" transform="matrix(.4686 0 0 .4686 0 23.055)"/>
</g></svg>