<?xml version="1.0" encoding="utf-8"?>
<!-- Generator: Adobe Illustrator 26.0.3, SVG Export Plug-In . SVG Version: 6.00 Build 0)  -->
<svg version="1.1" id="Layer_1" xmlns="http://www.w3.org/2000/svg" xmlns:xlink="http://www.w3.org/1999/xlink" x="0px" y="0px"
	 viewBox="0 0 160 160" style="enable-background:new 0 0 160 160;" xml:space="preserve">
<style type="text/css">
	.st0{fill:#DB9374;}
	.st1{fill:#BAD9EA;}
	.st2{fill:#A5C1D1;}
	.st3{fill:#91AAB8;}
	.st4{fill:#FBBDA0;}
	.st5{fill:#F0A17F;}
	.st6{fill:none;stroke:#3E5B58;stroke-width:2.5196;stroke-linecap:round;stroke-miterlimit:10;}
	.st7{fill:#3E5B58;}
</style>
<polygon class="st0" points="3,131.7 26.3,145.2 26.3,115.8 3,102.3 "/>
<g>
	<polyline class="st1" points="75.4,73.3 75.4,73.3 98.7,59.9 98.7,101.9 75.4,115.3 75.4,73.3 	"/>
	<polyline class="st2" points="98.7,59.9 75.4,73.3 52.1,59.9 75.4,46.4 98.7,59.9 	"/>
	<polygon class="st3" points="52.1,101.9 75.4,115.3 75.4,73.3 52.1,59.9 	"/>
	<polyline class="st4" points="26.3,115.8 26.3,115.8 49.6,102.3 49.6,131.7 26.3,145.2 26.3,115.8 	"/>
	<polyline class="st5" points="49.6,102.3 26.3,115.8 3,102.3 26.3,88.9 49.6,102.3 	"/>
	<polyline class="st4" points="124.6,31.3 124.6,31.3 147.9,17.8 147.9,72.5 124.6,85.9 124.6,31.3 	"/>
	<polyline class="st5" points="147.9,17.8 124.6,31.3 101.3,17.8 124.6,4.4 147.9,17.8 	"/>
	<polygon class="st0" points="101.3,72.5 124.6,85.9 124.6,31.3 101.3,17.8 	"/>
	<line class="st6" x1="35.4" y1="155.6" x2="154.7" y2="84.3"/>
	<polygon class="st7" points="152.8,97.4 150.4,96.7 153.8,84.8 141.7,82.2 142.2,79.7 157,82.9 	"/>
</g>
</svg>
