<?xml version="1.0" encoding="UTF-8"?><svg width="597" height="130" id="a" xmlns="http://www.w3.org/2000/svg" viewBox="0 0 597 130"><defs><style>.b{fill:#3e5b58;}</style></defs><g><path class="b" d="M272.59,53.26h-10.46v29.4h-6.46v-29.4h-10.46v-5.3h27.38v5.3Z"/><path class="b" d="M275.14,71.09c.1,1.26,.32,2.36,.67,3.28,.35,.92,.82,1.68,1.39,2.28,.58,.6,1.26,1.05,2.05,1.34s1.67,.44,2.63,.44,1.79-.11,2.48-.34c.7-.22,1.3-.47,1.82-.74,.52-.27,.98-.52,1.37-.74,.39-.22,.77-.34,1.14-.34,.5,0,.86,.18,1.1,.55l1.7,2.16c-.66,.77-1.39,1.41-2.21,1.93-.82,.52-1.67,.94-2.56,1.25-.89,.31-1.79,.53-2.71,.66s-1.81,.19-2.68,.19c-1.71,0-3.3-.28-4.78-.85-1.47-.57-2.75-1.41-3.84-2.52-1.09-1.11-1.94-2.49-2.57-4.13-.62-1.64-.94-3.54-.94-5.7,0-1.68,.27-3.26,.82-4.74,.54-1.48,1.32-2.77,2.34-3.86,1.02-1.1,2.26-1.96,3.72-2.6,1.46-.64,3.12-.96,4.96-.96,1.55,0,2.98,.25,4.3,.74s2.44,1.22,3.38,2.17c.94,.95,1.68,2.12,2.22,3.5s.8,2.96,.8,4.74c0,.9-.1,1.5-.29,1.81-.19,.31-.56,.47-1.1,.47h-15.24Zm11.3-3.58c0-.77-.11-1.49-.32-2.17-.22-.68-.54-1.28-.97-1.79s-.98-.92-1.64-1.21c-.66-.3-1.44-.44-2.32-.44-1.71,0-3.06,.49-4.04,1.46-.98,.98-1.61,2.36-1.88,4.15h11.18Z"/><path class="b" d="M301.94,62.31c.77-1.47,1.68-2.63,2.74-3.47,1.06-.84,2.3-1.26,3.74-1.26,1.14,0,2.05,.25,2.74,.74l-.38,4.44c-.08,.29-.2,.49-.35,.61-.15,.12-.36,.18-.61,.18-.24,0-.6-.04-1.07-.12-.47-.08-.93-.12-1.38-.12-.66,0-1.24,.1-1.75,.29s-.97,.47-1.38,.83c-.41,.36-.77,.8-1.08,1.31-.31,.51-.6,1.1-.88,1.75v15.17h-5.93v-24.62h3.48c.61,0,1.03,.11,1.27,.32,.24,.22,.4,.6,.48,1.16l.36,2.78Z"/><path class="b" d="M319.99,62.31c.77-1.47,1.68-2.63,2.74-3.47,1.06-.84,2.3-1.26,3.74-1.26,1.14,0,2.05,.25,2.74,.74l-.38,4.44c-.08,.29-.2,.49-.35,.61-.15,.12-.36,.18-.61,.18-.24,0-.6-.04-1.07-.12-.47-.08-.93-.12-1.38-.12-.66,0-1.24,.1-1.75,.29s-.97,.47-1.38,.83c-.41,.36-.77,.8-1.08,1.31-.31,.51-.6,1.1-.88,1.75v15.17h-5.93v-24.62h3.48c.61,0,1.03,.11,1.27,.32,.24,.22,.4,.6,.48,1.16l.36,2.78Z"/><path class="b" d="M331.56,61.47c2.83-2.59,6.24-3.89,10.22-3.89,1.44,0,2.73,.24,3.86,.71,1.14,.47,2.1,1.13,2.88,1.97,.78,.84,1.38,1.84,1.79,3.01,.41,1.17,.61,2.45,.61,3.84v15.55h-2.69c-.56,0-.99-.08-1.3-.25-.3-.17-.54-.51-.72-1.02l-.53-1.78c-.62,.56-1.23,1.05-1.82,1.48-.59,.42-1.21,.78-1.85,1.07-.64,.29-1.32,.51-2.05,.66-.73,.15-1.53,.23-2.41,.23-1.04,0-2-.14-2.88-.42-.88-.28-1.64-.7-2.28-1.26-.64-.56-1.14-1.26-1.49-2.09-.35-.83-.53-1.8-.53-2.9,0-.62,.1-1.24,.31-1.86,.21-.62,.55-1.2,1.02-1.76,.47-.56,1.08-1.09,1.84-1.58,.75-.5,1.68-.93,2.77-1.3,1.1-.37,2.37-.67,3.83-.9,1.46-.23,3.12-.37,4.99-.42v-1.44c0-1.65-.35-2.87-1.06-3.66s-1.72-1.19-3.05-1.19c-.96,0-1.76,.11-2.39,.34-.63,.22-1.19,.48-1.67,.76s-.92,.53-1.31,.76c-.39,.22-.83,.34-1.31,.34-.42,0-.77-.11-1.06-.32s-.52-.47-.7-.76l-1.06-1.9Zm13.58,10.68c-1.71,.08-3.15,.23-4.32,.44-1.17,.22-2.1,.49-2.81,.83-.7,.34-1.21,.73-1.51,1.18-.3,.45-.46,.94-.46,1.46,0,1.04,.31,1.78,.92,2.23,.62,.45,1.42,.67,2.41,.67,1.22,0,2.27-.22,3.16-.66,.89-.44,1.76-1.11,2.6-2v-4.15Z"/><path class="b" d="M362.18,61.06c.5-.5,1.02-.96,1.57-1.38,.55-.42,1.14-.78,1.75-1.08,.62-.3,1.28-.53,1.98-.7s1.47-.25,2.3-.25c1.34,0,2.54,.23,3.58,.68,1.04,.46,1.91,1.1,2.6,1.92,.7,.82,1.22,1.81,1.58,2.95,.36,1.14,.54,2.4,.54,3.78v15.67h-5.93v-15.67c0-1.5-.34-2.67-1.03-3.49-.69-.82-1.74-1.24-3.14-1.24-1.02,0-1.98,.23-2.88,.7-.9,.46-1.74,1.1-2.54,1.9v17.81h-5.93v-24.62h3.62c.77,0,1.27,.36,1.51,1.08l.41,1.94Z"/><path class="b" d="M388.41,71.09c.1,1.26,.32,2.36,.67,3.28,.35,.92,.82,1.68,1.39,2.28,.58,.6,1.26,1.05,2.05,1.34s1.67,.44,2.63,.44,1.79-.11,2.48-.34c.7-.22,1.3-.47,1.82-.74,.52-.27,.98-.52,1.37-.74,.39-.22,.77-.34,1.14-.34,.5,0,.86,.18,1.1,.55l1.7,2.16c-.66,.77-1.39,1.41-2.21,1.93-.82,.52-1.67,.94-2.56,1.25-.89,.31-1.79,.53-2.71,.66s-1.81,.19-2.68,.19c-1.71,0-3.3-.28-4.78-.85-1.47-.57-2.75-1.41-3.84-2.52-1.09-1.11-1.94-2.49-2.57-4.13-.62-1.64-.94-3.54-.94-5.7,0-1.68,.27-3.26,.82-4.74,.54-1.48,1.32-2.77,2.34-3.86,1.02-1.1,2.26-1.96,3.72-2.6,1.46-.64,3.12-.96,4.96-.96,1.55,0,2.98,.25,4.3,.74s2.44,1.22,3.38,2.17c.94,.95,1.68,2.12,2.22,3.5s.8,2.96,.8,4.74c0,.9-.1,1.5-.29,1.81-.19,.31-.56,.47-1.1,.47h-15.24Zm11.3-3.58c0-.77-.11-1.49-.32-2.17-.22-.68-.54-1.28-.97-1.79s-.98-.92-1.64-1.21c-.66-.3-1.44-.44-2.32-.44-1.71,0-3.06,.49-4.04,1.46-.98,.98-1.61,2.36-1.88,4.15h11.18Z"/><path class="b" d="M417.6,83.04c-2.14,0-3.79-.6-4.93-1.81-1.14-1.21-1.72-2.88-1.72-5v-13.75h-2.52c-.32,0-.59-.1-.82-.31-.22-.21-.34-.52-.34-.94v-2.35l3.96-.65,1.25-6.72c.08-.32,.23-.57,.46-.74s.51-.26,.86-.26h3.07v7.75h6.58v4.22h-6.58v13.34c0,.77,.19,1.37,.56,1.8s.89,.65,1.55,.65c.37,0,.68-.04,.92-.13,.25-.09,.46-.18,.65-.28,.18-.1,.35-.19,.49-.28,.14-.09,.29-.13,.43-.13,.18,0,.32,.04,.43,.13,.11,.09,.23,.22,.36,.4l1.78,2.88c-.86,.72-1.86,1.26-2.98,1.63-1.12,.37-2.28,.55-3.48,.55Z"/><path class="b" d="M431.76,71.09c.1,1.26,.32,2.36,.67,3.28,.35,.92,.82,1.68,1.39,2.28,.58,.6,1.26,1.05,2.05,1.34s1.67,.44,2.63,.44,1.79-.11,2.48-.34c.7-.22,1.3-.47,1.82-.74,.52-.27,.98-.52,1.37-.74,.39-.22,.77-.34,1.14-.34,.5,0,.86,.18,1.1,.55l1.7,2.16c-.66,.77-1.39,1.41-2.21,1.93-.82,.52-1.67,.94-2.56,1.25-.89,.31-1.79,.53-2.71,.66s-1.81,.19-2.68,.19c-1.71,0-3.3-.28-4.78-.85-1.47-.57-2.75-1.41-3.84-2.52-1.09-1.11-1.94-2.49-2.57-4.13-.62-1.64-.94-3.54-.94-5.7,0-1.68,.27-3.26,.82-4.74,.54-1.48,1.32-2.77,2.34-3.86,1.02-1.1,2.26-1.96,3.72-2.6,1.46-.64,3.12-.96,4.96-.96,1.55,0,2.98,.25,4.3,.74s2.44,1.22,3.38,2.17c.94,.95,1.68,2.12,2.22,3.5s.8,2.96,.8,4.74c0,.9-.1,1.5-.29,1.81-.19,.31-.56,.47-1.1,.47h-15.24Zm11.3-3.58c0-.77-.11-1.49-.32-2.17-.22-.68-.54-1.28-.97-1.79s-.98-.92-1.64-1.21c-.66-.3-1.44-.44-2.32-.44-1.71,0-3.06,.49-4.04,1.46-.98,.98-1.61,2.36-1.88,4.15h11.18Z"/><path class="b" d="M468,62.84c-.16,.26-.33,.44-.5,.54-.18,.1-.4,.16-.67,.16-.29,0-.6-.08-.92-.24-.33-.16-.71-.34-1.14-.54-.43-.2-.92-.38-1.48-.54-.55-.16-1.2-.24-1.96-.24-1.17,0-2.08,.25-2.75,.74-.66,.5-1,1.14-1,1.94,0,.53,.17,.97,.52,1.33,.34,.36,.8,.68,1.37,.95,.57,.27,1.21,.52,1.93,.73,.72,.22,1.45,.45,2.2,.71,.74,.26,1.48,.55,2.2,.88,.72,.33,1.36,.74,1.93,1.25s1.02,1.11,1.37,1.81c.34,.7,.52,1.55,.52,2.54,0,1.18-.21,2.28-.64,3.28-.42,1-1.05,1.86-1.88,2.59-.83,.73-1.86,1.3-3.08,1.7-1.22,.41-2.64,.61-4.24,.61-.85,0-1.68-.08-2.48-.23-.81-.15-1.58-.36-2.33-.64-.74-.27-1.43-.59-2.06-.96-.63-.37-1.19-.77-1.67-1.2l1.37-2.26c.18-.27,.38-.48,.62-.62,.24-.14,.54-.22,.91-.22s.72,.1,1.04,.31c.33,.21,.71,.43,1.14,.67,.43,.24,.94,.46,1.52,.67,.58,.21,1.32,.31,2.22,.31,.7,0,1.31-.08,1.81-.25,.5-.17,.92-.39,1.25-.66,.33-.27,.57-.59,.72-.95,.15-.36,.23-.73,.23-1.12,0-.58-.17-1.05-.52-1.42-.34-.37-.8-.69-1.37-.96-.57-.27-1.22-.52-1.94-.73-.73-.22-1.47-.45-2.23-.71-.76-.26-1.5-.56-2.23-.9-.73-.34-1.38-.78-1.94-1.31-.57-.53-1.02-1.18-1.37-1.94-.34-.77-.52-1.7-.52-2.78,0-1.01,.2-1.97,.6-2.88,.4-.91,.99-1.71,1.76-2.39s1.74-1.22,2.9-1.63c1.16-.41,2.5-.61,4.02-.61,1.7,0,3.24,.28,4.63,.84,1.39,.56,2.55,1.3,3.48,2.21l-1.34,2.14Z"/></g><g><g><path class="b" d="M173.84,86.96c-12.42,0-22.53-9.85-22.53-21.96s10.11-21.96,22.53-21.96,22.53,9.85,22.53,21.96-10.11,21.96-22.53,21.96Zm0-38.67c-9.53,0-17.27,7.49-17.27,16.71s7.75,16.71,17.27,16.71,17.27-7.49,17.27-16.71-7.75-16.71-17.27-16.71Z"/><path class="b" d="M203.25,63.28c-.21-.15-.44-.24-.69-.26-.28-.03-.56,.04-.81,.17h-.01c-.29,.16-.6,.26-.91,.29-.4,.05-.81,.06-1.21,.03l-4.15-.69c-.14-.02-.29-.03-.43-.02h-4.79c-1.18,0-2.36-.04-3.54-.11l-6.39-.39,4.28-4.82c.76-.86,1.54-1.69,2.35-2.5l3.42-3.42c.11-.09,.21-.2,.3-.32l2.39-3.37c.31-.35,.66-.67,1.04-.95,.23-.17,.49-.3,.77-.39,.33-.1,.62-.3,.79-.58,.05-.08,.09-.16,.12-.25,.23-.66,.03-1.48-.56-2.08-.51-.51-1.2-.73-1.8-.63-.25,.04-.48,.15-.67,.3-.22,.17-.37,.42-.45,.7h0c-.1,.33-.24,.61-.44,.86-.25,.32-.53,.61-.84,.88l-3.42,2.45c-.12,.08-.22,.18-.31,.29h0l-3.38,3.39c-.84,.84-1.7,1.64-2.58,2.43l-4.79,4.24-.38-6.43c-.07-1.14-.1-2.28-.1-3.43v-4.84c.01-.15,0-.29-.02-.44l-.69-4.07c-.03-.47,0-.94,.06-1.41,.04-.28,.13-.56,.27-.82,.16-.3,.23-.65,.15-.97-.02-.09-.05-.18-.1-.26-.31-.63-1.03-1.07-1.87-1.07-.72,0-1.36,.33-1.72,.83-.15,.21-.24,.44-.26,.69-.03,.28,.04,.56,.17,.81h0c.15,.3,.25,.61,.29,.92,.05,.4,.06,.81,.03,1.21l-.69,4.15c-.02,.14-.03,.29-.02,.43h0v4.79c0,1.18-.04,2.36-.11,3.54l-.39,6.4-4.83-4.3c-.84-.74-1.65-1.51-2.44-2.31l-3.48-3.48c-.09-.11-.19-.2-.31-.29l-3.37-2.39c-.35-.31-.67-.66-.95-1.04-.17-.23-.3-.49-.39-.77-.1-.33-.3-.62-.58-.79-.08-.05-.16-.09-.25-.12-.66-.23-1.48-.03-2.08,.56-.51,.51-.73,1.2-.63,1.8,.04,.25,.15,.48,.3,.67,.17,.22,.42,.37,.7,.45h.01c.31,.1,.6,.25,.85,.45,.32,.25,.61,.53,.88,.84l2.45,3.42c.09,.12,.19,.23,.3,.32l3.27,3.27c.8,.8,1.58,1.63,2.34,2.48l4.45,5.02-6.46,.38c-1.12,.07-2.24,.1-3.36,.1h-4.91c-.14-.01-.28,0-.42,.02l-4.07,.69c-.47,.03-.94,0-1.41-.06-.28-.04-.56-.13-.82-.27-.3-.16-.65-.23-.97-.15-.09,.02-.18,.05-.26,.1-.63,.31-1.07,1.03-1.07,1.87,0,.72,.33,1.36,.83,1.72,.21,.15,.44,.24,.69,.26,.28,.03,.56-.04,.81-.17h.01c.29-.16,.6-.26,.91-.29,.4-.05,.81-.06,1.21-.03l4.15,.69c.15,.02,.29,.03,.44,.02h4.62c1.14,0,2.27,.03,3.41,.1l6.7,.4-4.3,4.84c-.74,.84-1.51,1.65-2.31,2.44l-3.48,3.48c-.11,.09-.2,.19-.29,.31l-2.39,3.37c-.31,.35-.66,.67-1.04,.95-.23,.17-.49,.3-.77,.39-.33,.1-.62,.3-.79,.58-.05,.08-.09,.16-.12,.25-.23,.66-.03,1.48,.56,2.08,.51,.51,1.2,.73,1.8,.63,.25-.04,.48-.15,.67-.3,.22-.17,.37-.42,.45-.7h0c.1-.33,.24-.61,.44-.86,.25-.32,.53-.61,.84-.88l3.42-2.45c.12-.09,.23-.19,.32-.3l3.27-3.27c.8-.8,1.63-1.58,2.48-2.34l5.02-4.45,.38,6.46c.07,1.12,.1,2.24,.1,3.36v4.92c-.01,.14,0,.28,.02,.42l.69,4.07c.03,.47,0,.94-.06,1.41-.04,.28-.13,.56-.27,.82-.16,.3-.23,.65-.15,.97,.02,.09,.05,.18,.1,.26,.31,.63,1.03,1.07,1.87,1.07,.72,0,1.36-.33,1.72-.83,.15-.21,.24-.44,.26-.69,.03-.28-.04-.56-.17-.81h0c-.15-.3-.25-.61-.29-.92-.05-.4-.06-.81-.03-1.21l.69-4.15c.02-.15,.03-.29,.02-.44v-4.62c0-1.14,.03-2.27,.1-3.41l.4-6.68,4.83,4.29c.86,.76,1.69,1.54,2.5,2.35l3.42,3.42c.09,.11,.2,.21,.32,.3l3.37,2.39c.35,.31,.67,.66,.95,1.04,.17,.23,.3,.49,.39,.77,.1,.33,.3,.62,.58,.79,.08,.05,.16,.09,.25,.12,.66,.23,1.48,.03,2.08-.56,.51-.51,.73-1.2,.63-1.8-.04-.25-.15-.48-.3-.67-.17-.22-.42-.37-.7-.45h-.01c-.31-.1-.6-.25-.85-.45-.32-.25-.61-.53-.88-.84l-2.45-3.42c-.08-.12-.18-.22-.29-.31h0l-3.38-3.39c-.84-.84-1.64-1.7-2.43-2.58l-4.24-4.79,6.43-.38c1.14-.07,2.28-.1,3.43-.1h4.84c.15,.01,.29,0,.44-.02l4.07-.69c.47-.03,.94,0,1.41,.06,.28,.04,.56,.13,.82,.27,.3,.16,.65,.23,.97,.15,.09-.02,.18-.05,.26-.1,.63-.31,1.07-1.03,1.07-1.87,0-.72-.33-1.36-.83-1.72Zm-29.41,7.05c-3.03,0-5.49-2.39-5.49-5.33s2.46-5.33,5.49-5.33,5.49,2.39,5.49,5.33-2.46,5.33-5.49,5.33Z"/></g><g><g><circle class="b" cx="131.89" cy="65" r="6.69"/><circle class="b" cx="215.79" cy="65" r="6.69"/></g><g><circle class="b" cx="173.84" cy="23.05" r="6.69"/><circle class="b" cx="173.84" cy="106.95" r="6.69"/></g><g><circle class="b" cx="200.14" cy="38.93" r="4.3"/><circle class="b" cx="146.9" cy="92.17" r="4.3"/></g><g><circle class="b" cx="200.14" cy="92.17" r="4.3"/><circle class="b" cx="146.9" cy="38.93" r="4.3"/></g></g></g></svg>