<?xml version="1.0" encoding="utf-8"?>
<!-- Generator: Adobe Illustrator 26.0.3, SVG Export Plug-In . SVG Version: 6.00 Build 0)  -->
<svg version="1.1" id="Layer_1" xmlns="http://www.w3.org/2000/svg" xmlns:xlink="http://www.w3.org/1999/xlink" x="0px" y="0px"
	 viewBox="0 0 160 160" style="enable-background:new 0 0 160 160;" xml:space="preserve">
<style type="text/css">
	.st0{fill:none;stroke:#3E5B58;stroke-width:2.4343;stroke-linecap:round;stroke-linejoin:round;stroke-dasharray:6.5914;}
	.st1{fill:#B9D9EB;}
	.st2{fill:#FFBE9F;}
	.st3{fill:#F0A17F;}
</style>
<g>
	<polyline class="st0" points="137.5,71.2 137.5,133.2 77.1,133.2 37.9,133.2 37.9,33.6 91.6,33.6 	"/>
	<path class="st1" d="M21.7,121.9c1.2-7.7,6.2-14.4,14.9-13.8c1.8,0.1,3.6,0.5,5.3,1.1l0.8-1.8c6.5-12.7,24.6-16.5,35.7-7.4
		c2,1.7,3.6,3.7,4.7,6.1c2.2,4.6,2.7,9.8,1.5,14.8l2.3,0.9c0,0,11.7,4.6,10.8,16.4s-10.5,14.7-17.6,14.7H66.4L40,153.1h-1.7
		c-7,0.1-14,0.1-20.9-0.3c-2.9-0.2-5.8-0.5-8.4-1.9c-3-1.7-5.3-4.4-6.4-7.7c-1.1-3.3-1.2-6.8-0.3-10.2c0.6-2.9,2-5.5,3.9-7.7
		c3.8-4.1,8.6-4.2,13.8-3.7L21.7,121.9z"/>
	<path class="st2" d="M155.4,34.5h-6.7c0,0-0.6-4.8-3.4-8.1l4.2-4.3c0,0,3.4-2.1-0.1-5.6l-2.2-2c0,0-1.2-2-4.3,1.2l-3.8,4.5
		c-2.1-1.9-4.8-3-7.7-3.2l-0.5-5c0-5-2.2-5.1-2.2-5.1h-4.4c-2.8,0-2.3,5.4-2.3,5.4v4.6c-5-0.1-8.6,3.4-8.6,3.4l-5-4.4
		c0,0-1.9-2.5-4.5,0.1l-1.9,2.1c0,0-1.4,1.3,1.4,4.2l4.4,4.2c0,0-2.8,1.8-3.7,7.9h-6.3c0,0-3.7-0.1-3.7,3v2.9c0,0-0.8,3.1,3.1,3.1
		h6.4c0,0,0.6,5.4,3.7,8.2c0,0-6.8,6.4-4.6,8.8l2.1,2.1c0,0,2.4,2.5,5.3-0.8l3.6-3.6c0,0,2.6,3.2,8.1,3.4v5.8c0,0-0.8,3.9,2.7,3.9
		h3.5c0,0,2.9,0.5,2.9-3.6v-6.5c0,0,5.5-0.2,8.2-3l1.5,1.5c0,0,5.1,5.1,7.2,3.1l3-2.7c0,0,1.8-1.2-1.6-4.5l-4-3.9
		c0,0,3.9-4.2,3.3-7.9h7c0,0,2.9-0.3,2.9-3.2v-2.9C158.3,37.6,159.2,34.5,155.4,34.5z M136.7,47.1c-4.4,5.6-12.4,6.6-18,2.3
		s-6.6-12.4-2.3-18c4.4-5.6,12.8-5.7,18.4-1.3l1.9,1.8C140.7,36.4,140.6,42.2,136.7,47.1z"/>
	<path class="st3" d="M96.7,56.3h-3.2c-0.2-1.4-0.8-2.7-1.6-3.9l2-2c0,0,1.6-1,0-2.7l-1.1-1c0,0-0.5-0.9-2.1,0.6l-1.8,2.1
		c-1-0.9-2.3-1.4-3.6-1.5L85,45.6c0-2.4-1.1-2.4-1.1-2.4h-2.1c-1.3,0-1.1,2.6-1.1,2.6v2.2c-1.5,0-3,0.6-4.1,1.6l-2.4-2.1
		c-0.5-0.6-1.3-0.7-1.9-0.2c-0.1,0.1-0.2,0.2-0.3,0.3l-0.9,1c0,0-0.7,0.6,0.7,2l2.1,2c0,0-1.3,0.9-1.8,3.8h-3c0,0-1.8,0-1.8,1.4V59
		c0,0-0.4,1.5,1.5,1.5h3c0,0,0.3,2.5,1.8,3.9c0,0-3.2,3-2.2,4.2l1,1c0,0,1.1,1.2,2.5-0.4l1.7-1.7c1,1,2.4,1.6,3.9,1.6v2.8
		c0,0-0.4,1.8,1.3,1.8h1.7c0,0,1.4,0.2,1.4-1.7v-3.1c0,0,2.6-0.1,3.9-1.4l0.7,0.7c0,0,2.4,2.4,3.4,1.5l1.4-1.3c0,0,0.8-0.6-0.7-2.1
		l-1.9-1.8c0,0,1.8-2,1.6-3.8h3.3c0.8-0.1,1.4-0.7,1.4-1.5v-1.4C98,57.8,98.4,56.3,96.7,56.3z M87.8,62.3c-2.1,2.7-5.9,3.1-8.5,1.1
		c-2.7-2.1-3.1-5.9-1.1-8.5l0,0c2.1-2.7,6.1-2.7,8.7-0.6l0.9,0.9C89.7,57.2,89.6,59.9,87.8,62.3L87.8,62.3z"/>
</g>
</svg>
