<?xml version="1.0" encoding="utf-8"?>
<!-- Generator: Adobe Illustrator 26.0.3, SVG Export Plug-In . SVG Version: 6.00 Build 0)  -->
<svg version="1.1" id="Layer_1" xmlns="http://www.w3.org/2000/svg" xmlns:xlink="http://www.w3.org/1999/xlink" x="0px" y="0px"
	 viewBox="0 0 160 160" style="enable-background:new 0 0 160 160;" xml:space="preserve">
<style type="text/css">
	.st0{fill:#F0A17F;}
	.st1{fill:#FFBE9F;}
	.st2{fill:#A5C1D1;}
	.st3{fill:#B9D9EB;}
	.st4{fill:#3E5B58;}
	.st5{fill:none;stroke:#3E5B58;stroke-width:3.5773;stroke-linecap:round;stroke-linejoin:round;}
</style>
<g>
	<path class="st0" d="M79.7,83V159h0.7c42.4-12.5,56.9-47.3,61.4-76.1H79.7z"/>
	<path class="st1" d="M79.7,159V83H18.2C22.8,111.7,37.3,146.5,79.7,159z"/>
	<path class="st1" d="M17.5,40.2C15.8,54.4,16,68.8,18.2,83h61.4V1C79.7,1,41.3,40.2,17.5,40.2z"/>
	<path class="st0" d="M142.5,40.2C118.7,40.2,80.3,1,80.3,1h-0.7v82h62.1C144,68.8,144.2,54.4,142.5,40.2z"/>
	<path class="st2" d="M94.6,62.1c0-5.3,1.3-11.4-3.5-15.5c-3.2-2.5-7.1-3.8-11.1-3.8c-4.3-0.1-8.8,1.2-11.5,3.9
		c-3.9,3.9-3.3,9.3-3.3,14.1c0,3.2,0,6.4,0,9.6h-6.6c0-3.6,0-7.1,0-10.7c0-6.2-1-13.1,4.7-18.2c3.9-3.5,10.4-5.2,16.6-5.1
		c5.9,0.1,11.9,1.8,16,4.9c7,5.4,5.1,13.3,5.1,20.1v9h-6.5L94.6,62.1z"/>
	<path class="st3" d="M105.7,69.8H54.3c-2.7-0.1-5,1.9-5.2,4.6v45.7c0.2,2.7,2.5,4.8,5.2,4.6h51.3c2.7,0.1,5-1.9,5.2-4.6V74.5
		C110.7,71.8,108.4,69.7,105.7,69.8z"/>
	<path class="st4" d="M71.8,91.2c0-4.6,3.7-8.3,8.2-8.3c4.6,0,8.3,3.7,8.3,8.2c0,2.9-1.6,5.7-4.1,7.1v7.5c0,2.5-2.1,4.6-4.6,4.6
		c-2.5,0-4.6-2-4.6-4.6v-8.1C72.9,96.2,71.8,93.8,71.8,91.2z"/>
	<path class="st5" d="M85,14.3c0,0,17.2,24.4,51,32.8c0,0,3.9,24.4-10.4,66.3"/>
	<path class="st5" d="M29.2,105.9c0,0,10.7,32.5,45.8,46.5"/>
</g>
</svg>
