<?xml version="1.0" encoding="UTF-8"?>
<svg id="Layer_1" data-name="Layer 1" xmlns="http://www.w3.org/2000/svg" viewBox="0 0 2239 574">
  <defs>
    <style>
      .cls-1 {
        fill: #022859;
        stroke-width: 0px;
      }
    </style>
  </defs>
  <g>
    <path class="cls-1" d="M834.3,182.7l.2,62.1h-4.6l-15-41c-8.5-5.4-17.4-10.6-37.6-13.1v188.6l22.2,4.4v3.6h-104v-3.6l22.4-4.4v-188.6c-20.2,2.5-29.1,7.8-37.5,13.1l-15,41h-4.6l.2-62.1h173.3Z"/>
    <path class="cls-1" d="M965.9,340.3c-8.1,36.9-33.6,51-62.9,51-47.1,0-71-33.8-71-79.1s24.9-76.8,72.2-76.8c40.5,0,60.4,16.6,60.5,48.9,0,4.9-.5,10.6-1.6,16.2l-83-.9c1,35.4,16.5,57.2,46.1,57.2,14.4,0,26.8-5,38.4-17.5l1.3,1h0ZM880.2,293.4l37.5-1.5c1.1-8.2,1.9-16.8,1.9-23.6,0-16.8-4.8-27-15.9-27-13.9,0-23,17.4-23.5,52.1Z"/>
    <path class="cls-1" d="M1044.8,283.8v95.9l22,4.1v3.5h-88.5v-3.5l16.1-4.1v-104.9c-5.5-4.2-11.4-9.1-17-14v-1.1c19.1-7.1,39.2-15.6,58.2-25.4h.8c3.9,15.6,5.4,29.2,5.5,44.2,5.1-30.9,18.1-43,34.6-43,12.2,0,20.8,6.6,20.8,23.4,0,9.1-2.4,19.4-9.6,27.1-13.7-8.3-29.8-8.3-42.9-2.2h0Z"/>
    <path class="cls-1" d="M1172.5,283.8v95.9l22,4.1v3.5h-88.5v-3.5l16.1-4.1v-104.9c-5.5-4.2-11.4-9.1-17-14v-1.1c19.1-7.1,39.2-15.6,58.2-25.4h.8c3.9,15.6,5.4,29.2,5.5,44.2,5.1-30.9,18.1-43,34.6-43,12.2,0,20.8,6.6,20.8,23.4,0,9.1-2.4,19.4-9.6,27.1-13.6-8.3-29.7-8.3-42.9-2.2h0Z"/>
    <path class="cls-1" d="M1388.7,368.2c-9.1,13.8-24.6,22.9-42.2,22.9-16,0-25.6-7-26.8-21l-13.6,9.6c-5.9,4.1-16.8,11.6-32.8,11.6-21,0-38-12.9-38-35.4,0-23.6,17.9-35.2,84.4-42.4l.4-30c.5-24.5-8.4-37.4-27.6-37.4-4,0-7.9.6-11.8,1.9-.9,16,.8,31.5,4.1,45.4-7.8,4.1-16.2,6-24.5,6-14,0-25.4-6.8-25.4-21.4,0-24.9,44-42.6,81.2-42.6,39.6,0,53.1,20.1,52.2,47.5l-2.4,70.6c-.2,9.2,3.4,15.2,10.2,15.2,2.9,0,6.4-.8,10.5-2.9l2.1,2.4h0ZM1318.9,365.2l.6-45.4c-27.6,3.9-33.4,13.2-33.4,28s7,21.5,17.6,21.5c5.2,0,10.2-1.5,15.2-4.1h0Z"/>
    <path class="cls-1" d="M1544.7,379.7l13.6,4.1v3.5h-76.8v-3.5l12.8-4.1v-91.9c0-14.1-6-20.2-18.2-20.2-6.6,0-11.9,1.8-17.4,5v107.1l12.6,4.1v3.5h-79.1v-3.5l16-4.1v-104.9c-5.5-4.4-11.1-9.1-16.6-14v-1.1c21.9-7.5,38.8-14.5,61.4-25.4h.6c3,11.4,4.5,23.8,4.8,34,9-23.1,25.2-32.9,44.4-32.9,34.1,0,42,27,42,57.5v86.8h-.1Z"/>
    <path class="cls-1" d="M1700.4,340.3c-8.1,36.9-33.6,51-62.9,51-47.1,0-71-33.8-71-79.1s24.9-76.8,72.2-76.8c40.5,0,60.4,16.6,60.5,48.9,0,4.9-.5,10.6-1.6,16.2l-83-.9c1,35.4,16.5,57.2,46.1,57.2,14.4,0,26.8-5,38.4-17.5l1.3,1h0ZM1614.7,293.4l37.5-1.5c1.1-8.2,1.9-16.8,1.9-23.6,0-16.8-4.8-27-15.9-27-13.9,0-23,17.4-23.5,52.1Z"/>
    <path class="cls-1" d="M1816.9,368.3c-14.5,15-30.5,22-50.1,22-26,0-39.8-16.9-39.8-42.1v-100.1h-19.9v-5.1l19.9-4.8v-5.2c0-22.6,12-40.1,35.4-40.1,5.4,0,10.1.8,14.8,2.5v44.1h37.2v8.6h-37.2v95.8c0,19.9,10.4,30.9,38.4,22l1.3,2.4h0Z"/>
    <path class="cls-1" d="M1950.8,340.3c-8.1,36.9-33.6,51-62.9,51-47.1,0-71-33.8-71-79.1s24.9-76.8,72.2-76.8c40.5,0,60.4,16.6,60.5,48.9,0,4.9-.5,10.6-1.6,16.2l-83-.9c1,35.4,16.5,57.2,46.1,57.2,14.4,0,26.8-5,38.4-17.5l1.3,1h0ZM1865,293.4l37.5-1.5c1.1-8.2,1.9-16.8,1.9-23.6,0-16.8-4.8-27-15.9-27-13.8,0-23,17.4-23.5,52.1Z"/>
    <path class="cls-1" d="M1969.9,380.1c2-14.2,2.6-31,3-46.6h5c13.9,32.6,32.4,51.2,51.8,51.2,11,0,16.9-6.1,16.9-16.8,0-11.9-7.1-18.9-25.5-28l-14.2-7.1c-22.2-11.1-38-24.5-38-50,0-27.5,20.2-47.6,63.4-47.6,16.1,0,31.9,2.5,46,8.4,0,14.4.9,29.5,2.1,45.8l-5.1.6c-19-35-37.6-48.1-52.6-48.1-8.9,0-15,4.9-15,14.9,0,13.9,13.9,22.5,24.8,27.6l11.4,5.5c22.8,11.2,42.9,23.4,42.9,53.5s-22,48-61.4,48c-20.8-.1-40.8-3.9-55.5-11.3h0Z"/>
  </g>
  <g>
    <path class="cls-1" d="M161.5,365.8c2.7-.8,4.8,2.5,12.5,9.5,5.5,5,15.2,13.2,20.6,17.6,3.2,2.7,5.9,4.8,7.3,8.8,1.6,4.7.4,9.1,0,10.3-2,6.5-7.3,9.9-10.3,11.7-3.2,2-13.1,8.3-23.5,4.4-10-3.7-13.6-14.3-14.7-17.6-2.2-6.5-.5-15.1,2.9-32.3,1.8-8.7,2.9-11.7,5.2-12.4h0Z"/>
    <path class="cls-1" d="M191.6,438.5c3-9.9,14-14,16.1-14.7,2.8-.9,5.6-1.4,19.1,0,25.1,2.6,32.7,6.1,35.2,7.3,7,3.4,11.4,5.6,13.2,10.3,3.6,9.2-5.1,21.6-13.2,27.9-17.9,13.8-49,9.5-63.1-7.3-2-2.4-10.5-12.7-7.3-23.5h0Z"/>
    <path class="cls-1" d="M473.4,156.7c.9-15.2-7.7-25.9-17.6-38.2-8.7-10.8-18.6-23-30.8-22-5.2.4-10.1,3.2-19.1,13.2-8.5,9.5-20.2,25.1-29.4,48.4-17.5,5.9-37.1,11.5-58.7,16.1-18.8,4.1-36.5,6.9-52.8,8.8-7.9-2.8-19.1-7.1-32.3-13.2-15.8-7.4-20.6-11-26.4-8.8-11.5,4.3-12.9,26.4-13.2,32.3-.9,14.5,3.1,26,5.9,32.3-3.6,6.2-7.1,13-10.3,20.6-12.1,28.5-14.8,55.2-14.7,74.9-2.9,7.8-5.9,15.7-8.8,23.5,4.8,1.3,12.1,2.6,20.6,1.5,8.9-1.2,10.1-3.8,22-5.9,12.9-2.2,19.8-.6,22,0,4.5,1.2,7.9,3,10.3,4.4-5.7,11.6-10.9,20.5-14.7,26.4-7.7,12.3-13.5,19.1-11.7,27.9.9,4.4,3.2,7.3,4.4,8.8,13,16.1,55,11.1,61.7,10.3,72.3-9.1,108.4-13.6,121.8-22,3.3-2.1,9.6-6,17-11.8,2.2-10.3,4.5-23.6,5-39.5.9-24.4-3.1-32.1-7.3-36.7-8.6-9.5-22.2-10.5-22-16.1.1-4.4,8.3-4.6,13.2-11.7,2.1-3,5.5-10,0-29.4-8.1-28.3-23.3-41-20.5-44,3-3.3,26,5.3,38.2,24.9,3.1,5.1,10.6,10.1,16.7,52.6,2.1,14.8,3.2,34.2,2.6,45.3s-.5,19-3.1,32.7c12.2-14.7,23.1-34.1,26.4-58.7,4.5-34.2-8.2-61.6-14.7-73.4,2.7-3.7,8.1-12.6,8.8-24.9.5-8.4-1.4-15.1-2.9-19.1,3.7-3.9,13.5-14.4,14.4-29.5h0ZM204.8,274.1c-1.7,11.5-8.6,19-11.7,22-3.1-10.1-4.1-18.1-4.4-23.5-.2-2.8-.2-5.4,1.5-7.3,3.9-4.6,13.5-1.8,14.7-1.5.3,2.8.5,6.3-.1,10.3h0ZM332.5,187.5c.8-2.9,8.4-4,14.7-2.9,18.4,3,31.3,24.8,27.9,29.4-1.4,1.9-4.5-.6-13.2,0-12.1.9-18.8,6.5-20.5,4.4-1.6-2,4.9-6.5,4.4-13.2-.8-9.5-14.5-13.6-13.3-17.7h0ZM314.9,263.8c-6.9,7.9-17.8,9.8-20.5,10.3-5.7,1-6.6-.1-10.3,1.5-8.2,3.5-10.6,12.2-11.7,11.7-1.2-.5,1.1-9.9,5.9-22,6.1-15.4,9.3-23.2,16.1-26.4,4-1.9,9-1.7,19.1-1.5,6.7.2,12.3.9,16.1,1.5-1.8,2.7-4.5,6.7-7.3,11.7-5.4,9.4-4.7,10.2-7.4,13.2h0ZM389.8,313.7c3.7,11.8.3,22.4-2.9,32.3-8.1,25.1-25.9,42.4-27.9,41.1-1.7-1.1-2.6-9.6,6.8-42.4,2.5-8.9,4.2-18.5,2.1-21.1-4.2-5.3-10.5-5.2-17,1.1-6.5,6.3-9.3,10.5-13.2,11.7-3.5,1.1-9.7-.7-9.5-9.5.2-10.6,12.8-19.5,23.5-22,11.5-2.8,20.4,1.8,22-1.5s-7.2-7.8-10.3-19.1c-1.6-5.7-.4-8.6,0-16.1,1.2-22.9-7.6-32.7-2.9-36.7,4.9-4.1,20.3,1.5,25,11.7,2,4.4.9,10.8-1.5,23.5-3.2,17.2-5.2,18.4-4.4,25,1.2,10.3,6.9,11.7,10.2,22h0ZM448.5,168.4c-3.4,13-8.2,16.6-10.3,29.4-1.4,8.5-.8,15.7,0,20.6-3.9-3.7-7.8-7.6-11.7-11.7-7.1-7.5-13.5-14.9-19.1-22,7.6-5,17.7-12.9,26.4-24.9,9-12.4,12-22.7,14.7-22,3.2.6,3.8,16.3,0,30.6h0Z"/>
  </g>
</svg>