<svg width="39" height="40" viewBox="0 0 39 40" fill="none" xmlns="http://www.w3.org/2000/svg">
<path d="M18.7852 10.9677H17.5329V7.09677C17.5329 3.87097 15.0281 1.29032 11.8972 1.29032C8.76627 1.29032 6.26153 3.87097 6.26153 7.09677V10.9677H5.00916V7.09677C5.00916 3.16129 8.07747 0 11.8972 0C15.7169 0 18.7852 3.16129 18.7852 7.09677V10.9677Z" fill="#1578E4"/>
<path d="M36.3181 27.0938H6.26121C4.8836 27.0938 3.75647 28.255 3.75647 29.6744V37.4163C3.75647 38.8357 4.8836 39.997 6.26121 39.997H36.3181C37.6957 39.997 38.8229 38.8357 38.8229 37.4163V29.6744C38.8229 28.255 37.6957 27.0938 36.3181 27.0938ZM10.0183 35.4808C8.95381 35.4808 8.13977 34.6421 8.13977 33.5454C8.13977 32.4486 8.95381 31.6099 10.0183 31.6099C11.0828 31.6099 11.8969 32.4486 11.8969 33.5454C11.8969 34.6421 11.0828 35.4808 10.0183 35.4808ZM17.5326 35.4808C16.468 35.4808 15.654 34.6421 15.654 33.5454C15.654 32.4486 16.468 31.6099 17.5326 31.6099C18.5971 31.6099 19.4111 32.4486 19.4111 33.5454C19.4111 34.6421 18.5971 35.4808 17.5326 35.4808ZM25.0468 35.4808C23.9823 35.4808 23.1682 34.6421 23.1682 33.5454C23.1682 32.4486 23.9823 31.6099 25.0468 31.6099C26.1113 31.6099 26.9254 32.4486 26.9254 33.5454C26.9254 34.6421 26.1113 35.4808 25.0468 35.4808ZM32.561 35.4808C31.4965 35.4808 30.6825 34.6421 30.6825 33.5454C30.6825 32.4486 31.4965 31.6099 32.561 31.6099C33.6255 31.6099 34.4396 32.4486 34.4396 33.5454C34.4396 34.6421 33.6255 35.4808 32.561 35.4808Z" fill="#1578E4"/>
<path d="M21.9165 12.2604H1.87856C0.814042 12.2604 0 13.0991 0 14.1959V27.7443C0 28.8411 0.814042 29.6798 1.87856 29.6798H2.50474C2.50474 27.5507 4.19545 25.8088 6.26186 25.8088H11.2713V22.5185C9.58064 22.1314 8.45351 20.454 8.82922 18.712C9.20493 16.9701 10.833 15.8088 12.5237 16.1959C14.2144 16.583 15.3416 18.2604 14.9658 20.0023C14.7154 21.2927 13.7761 22.2604 12.5237 22.5185V25.8088H23.7951V14.1959C23.7951 13.0991 22.981 12.2604 21.9165 12.2604Z" fill="#1578E4"/>
</svg>
