<svg width="40" height="40" viewBox="0 0 40 40" fill="none" xmlns="http://www.w3.org/2000/svg">
<path d="M20.0013 8C13.4013 8 8.00128 13.4 8.00128 20C8.00128 26.6 13.4013 32 20.0013 32C26.6013 32 32.0013 26.6 32.0013 20C32.0013 13.4 26.6013 8 20.0013 8ZM20.0013 25.3333C17.0679 25.3333 14.6679 22.9333 14.6679 20C14.6679 17.0667 17.0679 14.6667 20.0013 14.6667C22.9346 14.6667 25.3346 17.0667 25.3346 20C25.3346 22.9333 22.9346 25.3333 20.0013 25.3333Z" fill="#1578E4"/>
<path d="M20 23.9896C22.2091 23.9896 24 22.1987 24 19.9896C24 17.7805 22.2091 15.9896 20 15.9896C17.7909 15.9896 16 17.7805 16 19.9896C16 22.1987 17.7909 23.9896 20 23.9896Z" fill="#1578E4"/>
<path d="M20 0C8.93333 0 0 8.93333 0 20C0 31.0667 8.93333 40 20 40C31.0667 40 40 31.0667 40 20C40 8.93333 31.0667 0 20 0ZM20 33.3333C12.6667 33.3333 6.66667 27.3333 6.66667 20C6.66667 12.6667 12.6667 6.66667 20 6.66667C27.3333 6.66667 33.3333 12.6667 33.3333 20C33.3333 27.3333 27.3333 33.3333 20 33.3333Z" fill="#1578E4"/>
</svg>
