<svg width="42" height="41" viewBox="0 0 42 41" fill="none" xmlns="http://www.w3.org/2000/svg">
<path d="M40.5248 0.5H32.2768C32.0706 0.5 31.9331 0.566712 31.7956 0.700136L15.2308 16.711C8.56369 15.1766 1.82781 19.1793 0.315669 25.7171C-1.19647 32.2549 2.85881 38.726 9.5947 40.1936C16.3306 41.6613 22.9977 37.7253 24.5099 31.1875C24.9223 29.3863 24.9223 27.5183 24.5099 25.6504L27.2592 22.9152C27.3967 22.7818 27.4654 22.6484 27.4654 22.4482V17.7784H32.2768C32.6892 17.7784 32.9641 17.5115 32.9641 17.1113V12.4414H37.7754C37.9816 12.4414 38.1191 12.3747 38.2566 12.2413L41.0059 9.57283C41.1434 9.4394 41.2121 9.30598 41.2121 9.10584V1.16712C41.2121 0.766848 40.9372 0.5 40.5248 0.5ZM11.313 33.1889C9.25103 33.1889 7.53269 31.5211 7.53269 29.5197C7.53269 27.5183 9.25103 25.8505 11.313 25.8505C13.375 25.8505 15.0934 27.5183 15.0934 29.5197C15.0934 31.5211 13.375 33.1889 11.313 33.1889Z" fill="#1578E4"/>
</svg>
