<svg width="46" height="41" viewBox="0 0 46 41" fill="none" xmlns="http://www.w3.org/2000/svg">
<path d="M6.62363 23.3516C6.18207 23.3516 5.8877 23.6373 5.8877 24.0658C5.8877 24.4944 6.18207 24.7801 6.62363 24.7801H16.9267C17.3682 24.7801 17.6626 24.4944 17.6626 24.0658C17.6626 23.6373 17.3682 23.3516 16.9267 23.3516H6.62363Z" fill="#1578E4"/>
<path d="M41.9481 0.5H3.67965C1.61905 0.5 0 2.07143 0 4.07143V29.7857C0 31.7857 1.61905 33.3571 3.67965 33.3571H22.0779V31.9286H3.67965C2.42857 31.9286 1.47186 31 1.47186 29.7857V16.9286H44.1558V24.0714H45.6277V4.07143C45.6277 2.07143 44.0087 0.5 41.9481 0.5ZM44.1558 9.78571H1.47186V4.07143C1.47186 2.85714 2.42857 1.92857 3.67965 1.92857H41.9481C43.1991 1.92857 44.1558 2.85714 44.1558 4.07143V9.78571Z" fill="#1578E4"/>
<path d="M34.589 23.3516C29.7318 23.3516 25.7578 27.2087 25.7578 31.923C25.7578 36.6373 29.7318 40.4944 34.589 40.4944C39.4461 40.4944 43.4202 36.6373 43.4202 31.923C43.4202 27.2087 39.4461 23.3516 34.589 23.3516ZM38.2686 32.6373H35.3249V35.4944C35.3249 35.923 35.0305 36.2087 34.589 36.2087C34.1474 36.2087 33.8531 35.923 33.8531 35.4944V32.6373H30.9093C30.4678 32.6373 30.1734 32.3516 30.1734 31.923C30.1734 31.4944 30.4678 31.2087 30.9093 31.2087H33.8531V28.3516C33.8531 27.923 34.1474 27.6373 34.589 27.6373C35.0305 27.6373 35.3249 27.923 35.3249 28.3516V31.2087H38.2686C38.7102 31.2087 39.0046 31.4944 39.0046 31.923C39.0046 32.3516 38.7102 32.6373 38.2686 32.6373Z" fill="#1578E4"/>
</svg>
