<svg width="42" height="41" viewBox="0 0 42 41" fill="none" xmlns="http://www.w3.org/2000/svg">
<path d="M34.057 26.8155C31.8535 26.8155 29.7921 27.7814 28.4416 29.4372L13.8701 22.4002C14.2255 21.2274 14.2255 19.9855 13.8701 18.8127L28.4416 11.7757C30.8583 14.8113 35.4075 15.3632 38.535 12.9486C41.6626 10.5339 42.2312 6.18756 39.7434 3.15201C37.2556 0.11645 32.8486 -0.366479 29.7211 1.97918C27.4465 3.70392 26.4513 6.6015 27.2332 9.29211L12.6617 16.3291C10.245 13.3625 5.76692 12.8106 2.71046 15.1562C-0.346002 17.5019 -0.914646 21.8483 1.50209 24.8148C3.91883 27.7814 8.3969 28.3333 11.4534 25.9877C11.8798 25.6427 12.3063 25.2288 12.6617 24.8148L27.2332 31.8518C26.2381 35.5083 28.4416 39.3027 32.2799 40.2686C36.1183 41.2344 39.9566 39.0957 40.9518 35.3703C41.9469 31.6448 39.7434 27.9194 35.905 26.9535C35.2653 26.8845 34.6967 26.8155 34.057 26.8155Z" fill="#1578E4"/>
</svg>
