<?xml version="1.0" encoding="utf-8"?>
<!-- Generator: Adobe Illustrator 27.0.0, SVG Export Plug-In . SVG Version: 6.00 Build 0)  -->
<svg version="1.1" id="Layer_1" xmlns="http://www.w3.org/2000/svg" xmlns:xlink="http://www.w3.org/1999/xlink" x="0px" y="0px"
	 viewBox="0 0 176.7 42" style="enable-background:new 0 0 176.7 42;" xml:space="preserve">
<style type="text/css">
	.st0{fill:url(#SVGID_1_);}
	.st1{fill:#022859;}
</style>
<g>
	
		<linearGradient id="SVGID_1_" gradientUnits="userSpaceOnUse" x1="4.8503" y1="0.6706" x2="39.0499" y2="37.0363" gradientTransform="matrix(1 0 0 -1 0 37.9087)">
		<stop  offset="0" style="stop-color:#1578E4"/>
		<stop  offset="0.9702" style="stop-color:#C2BBFF"/>
	</linearGradient>
	<path class="st0" d="M32.6,8.1L15.8,3.6c-0.2,0-0.4,0-0.5,0.1L4,15l-1.1,1.1c-0.1,0.1-0.2,0.3-0.1,0.5l4.5,16.9
		c0,0.2,0.2,0.3,0.4,0.4l16.9,4.5c0.2,0,0.4,0,0.5-0.1l1.1-1.1l11.2-11.3c0.1-0.1,0.2-0.3,0.1-0.5L33,8.5
		C32.9,8.3,32.8,8.2,32.6,8.1L32.6,8.1z M22.3,30.4l-2.4-8.9c0-0.2-0.2-0.3-0.4-0.4l-8.9-2.4c-0.4-0.1-0.5-0.6-0.2-0.9l5.2-5.2
		c0.1-0.1,0.3-0.2,0.5-0.1l9.4,2.5c0.2,0,0.3,0.2,0.4,0.4l2.5,9.4c0,0.2,0,0.4-0.1,0.5l-5.2,5.2C22.9,30.9,22.4,30.8,22.3,30.4
		L22.3,30.4z"/>
	<path class="st1" d="M63.6,30.6v-2c-0.5,0.6-1.4,1.2-2.7,1.8c-1.2,0.6-2.5,0.8-3.9,0.8c-1.8,0-3.4-0.5-5-1.5c-1.6-1-2.8-2.3-3.8-4
		c-1-1.7-1.4-3.5-1.4-5.5s0.5-3.8,1.5-5.4c1-1.7,2.3-3,4-3.9c1.7-1,3.5-1.5,5.5-1.5s3.7,0.5,5.4,1.5c1.6,1,2.9,2.3,3.8,3.9
		c0.9,1.7,1.4,3.5,1.4,5.4v10.3L63.6,30.6L63.6,30.6z M52.4,23.7c0.6,1,1.3,1.8,2.2,2.4s2,0.9,3,0.9s2.1-0.3,3-0.9
		c0.9-0.6,1.7-1.4,2.2-2.4c0.6-1,0.8-2.2,0.8-3.4s-0.3-2.4-0.8-3.4c-0.6-1-1.3-1.8-2.2-2.4c-0.9-0.6-2-0.9-3-0.9s-2.1,0.3-3,0.9
		c-0.9,0.6-1.7,1.4-2.2,2.4c-0.6,1-0.8,2.2-0.8,3.4C51.6,21.6,51.9,22.7,52.4,23.7z"/>
	<path class="st1" d="M73.5,14.9c0.9-1.7,2.2-3,3.8-3.9c1.6-1,3.4-1.5,5.4-1.5s3.8,0.5,5.5,1.5c1.7,1,3,2.3,4,3.9
		c1,1.7,1.5,3.5,1.5,5.4s-0.5,3.8-1.4,5.5c-1,1.7-2.2,3-3.8,4c-1.6,1-3.2,1.5-5,1.5c-1.3,0-2.6-0.3-3.9-0.8
		c-1.2-0.6-2.1-1.2-2.7-1.8V37h-4.6V20.3C72.1,18.4,72.6,16.5,73.5,14.9L73.5,14.9z M77.4,23.7c0.6,1,1.3,1.8,2.2,2.4
		c0.9,0.6,2,0.9,3,0.9c1.1,0,2.1-0.3,3-0.9c0.9-0.6,1.7-1.4,2.2-2.4c0.6-1,0.8-2.2,0.8-3.4s-0.3-2.4-0.8-3.4c-0.6-1-1.3-1.8-2.2-2.4
		c-0.9-0.6-2-0.9-3-0.9c-1.1,0-2.1,0.3-3,0.9c-0.9,0.6-1.7,1.4-2.2,2.4c-0.6,1-0.8,2.2-0.8,3.4S76.8,22.7,77.4,23.7z"/>
	<path class="st1" d="M98.1,14.9c0.9-1.7,2.2-3,3.8-3.9c1.6-1,3.4-1.5,5.4-1.5c2,0,3.8,0.5,5.5,1.5c1.7,1,3,2.3,4,3.9
		c1,1.7,1.5,3.5,1.5,5.4s-0.5,3.8-1.4,5.5c-1,1.7-2.2,3-3.8,4c-1.6,1-3.2,1.5-5,1.5c-1.3,0-2.6-0.3-3.9-0.8
		c-1.2-0.6-2.1-1.2-2.7-1.8V37h-4.6V20.3C96.8,18.4,97.2,16.5,98.1,14.9L98.1,14.9z M102,23.7c0.6,1,1.3,1.8,2.2,2.4
		c0.9,0.6,1.9,0.9,3,0.9c1.1,0,2.1-0.3,3-0.9c0.9-0.6,1.7-1.4,2.2-2.4c0.6-1,0.8-2.2,0.8-3.4s-0.3-2.4-0.8-3.4
		c-0.6-1-1.3-1.8-2.2-2.4c-0.9-0.6-2-0.9-3-0.9c-1.1,0-2.1,0.3-3,0.9c-0.9,0.6-1.7,1.4-2.2,2.4c-0.6,1-0.8,2.2-0.8,3.4
		S101.5,22.7,102,23.7z"/>
	<path class="st1" d="M123.5,9.8l6,15.6l6-15.6h4.6l-8.3,20.8h-4.6l-8.3-20.8H123.5z"/>
	<path class="st1" d="M148.3,9.8v20.8h-4.6V9.8H148.3z"/>
	<path class="st1" d="M169.3,30.6v-2c-0.5,0.6-1.4,1.2-2.7,1.8c-1.2,0.6-2.5,0.8-3.9,0.8c-1.8,0-3.4-0.5-5-1.5c-1.6-1-2.8-2.3-3.8-4
		c-1-1.7-1.4-3.5-1.4-5.5s0.5-3.8,1.5-5.4c1-1.7,2.3-3,4-3.9c1.7-1,3.5-1.5,5.5-1.5c2,0,3.7,0.5,5.4,1.5c1.6,1,2.9,2.3,3.8,3.9
		c0.9,1.7,1.4,3.5,1.4,5.4v10.3H169.3L169.3,30.6z M158.1,23.7c0.6,1,1.3,1.8,2.2,2.4c0.9,0.6,2,0.9,3,0.9c1.1,0,2.1-0.3,3-0.9
		c0.9-0.6,1.7-1.4,2.2-2.4c0.6-1,0.8-2.2,0.8-3.4c0-1.3-0.3-2.4-0.8-3.4c-0.6-1-1.3-1.8-2.2-2.4c-0.9-0.6-2-0.9-3-0.9
		c-1.1,0-2.1,0.3-3,0.9c-0.9,0.6-1.7,1.4-2.2,2.4c-0.6,1-0.8,2.2-0.8,3.4C157.2,21.6,157.5,22.7,158.1,23.7z"/>
</g>
</svg>
