<svg width="16" height="16" viewBox="0 0 16 16" fill="none" xmlns="http://www.w3.org/2000/svg">
<path d="M13.6997 2.13432L5.96972 0.0626485C5.88916 0.0409821 5.80305 0.0643152 5.7436 0.123204L0.584699 5.28209L0.0841418 5.78265C0.0252528 5.84154 0.00191944 5.92765 0.0235861 6.00876L2.0947 13.7393C2.11637 13.8199 2.17914 13.8832 2.26025 13.9049L9.99083 15.976C10.0714 15.9976 10.1575 15.9743 10.2169 15.9154L10.7175 15.4149L15.8764 10.256C15.9353 10.1971 15.9586 10.111 15.9369 10.0299L13.8658 2.29932C13.8442 2.21876 13.7814 2.15543 13.7003 2.13376L13.6997 2.13432ZM8.97749 12.3371L7.88916 8.27598C7.86749 8.19543 7.80472 8.13209 7.7236 8.11043L3.66248 7.02209C3.48859 6.97543 3.43025 6.7582 3.55748 6.63043L5.93472 4.2532C5.9936 4.19431 6.07972 4.17098 6.16083 4.19265L10.483 5.35098C10.5636 5.37265 10.6269 5.43543 10.6486 5.51654L11.8069 9.83876C11.8286 9.91931 11.8053 10.0054 11.7464 10.0649L9.36916 12.4421C9.24194 12.5693 9.02416 12.511 8.97749 12.3371Z" fill="#66ADF8"/>
</svg>
