<?xml version="1.0" encoding="UTF-8"?><svg id="Layer_1" xmlns="http://www.w3.org/2000/svg" xmlns:xlink="http://www.w3.org/1999/xlink" viewBox="0 0 200 200"><defs><style>.cls-1{fill:none;}.cls-2{clip-path:url(#clippath);}.cls-3{fill:#ea6530;}.cls-4{fill:#97ddd1;}.cls-5{fill:#1a3c40;}.cls-6{fill:#3d1b24;}.cls-7{clip-path:url(#clippath-1);}.cls-8{opacity:.4;}</style><clipPath id="clippath"><rect class="cls-1" x="9.96" y="16.46" width="180.08" height="167.08"/></clipPath><clipPath id="clippath-1"><rect class="cls-1" x="9.96" y="16.46" width="180.08" height="167.08"/></clipPath></defs><g class="cls-8"><g class="cls-2"><path class="cls-5" d="M147.88,183.54V42.82H68.18v99.72h0c0,.12,0,.23,0,.35,0,22.45,17.84,40.65,39.85,40.65,.11,0,.23,0,.34,0h0s39.51,0,39.51,0Z"/><path class="cls-4" d="M147.92,97.76V16.46H50.16c-.11,0-.23,0-.34,0-22.01,0-39.85,18.2-39.85,40.65s17.84,40.65,39.85,40.65c.11,0,.23,0,.34,0h0s97.76,0,97.76,0Z"/><path class="cls-6" d="M49.19,16.49c-21.72,.34-39.23,18.4-39.23,40.64,0,2.43,.22,4.81,.62,7.12,21.72-.34,39.23-18.4,39.23-40.64,0-2.43-.22-4.81-.62-7.12"/><path class="cls-3" d="M105.96,145.52h42.81c.41,.01,.83,.03,1.25,.03,22.01,0,39.85-18.2,39.85-40.65s-17.84-40.65-39.85-40.65c-.12,0-.23,0-.34,0h0s-43.71,0-43.71,0v81.27Z"/></g><rect class="cls-6" x="105.96" y="64.25" width="41.27" height="33.51"/><g class="cls-7"><path class="cls-5" d="M150.54,16.46V56.76c21.74-.19,39.32-18.12,39.5-40.29h-39.5Z"/><path class="cls-3" d="M63.8,102.59H24.3c.18,22.17,17.77,40.11,39.51,40.29v-40.29Z"/></g></g><g><circle class="cls-6" cx="100" cy="110.19" r="3.4"/><path class="cls-6" d="M141.17,59.3l-40.76-10.19c-.27-.07-.55-.07-.82,0l-40.76,10.19c-.76,.19-1.29,.87-1.29,1.65v47.55c0,23.45,19.01,42.45,42.45,42.45s42.45-19.01,42.45-42.45V60.94c0-.78-.53-1.46-1.29-1.65Zm-53.05,25.42c0-6.57,5.32-11.89,11.89-11.89s11.89,5.32,11.89,11.89v8.49h-3.4v-8.49c0-4.69-3.8-8.49-8.49-8.49s-8.49,3.8-8.49,8.49v8.49h-3.4v-8.49Zm30.57,37.36c0,.94-.76,1.7-1.7,1.7h-33.96c-.94,0-1.7-.76-1.7-1.7v-23.77c0-.94,.76-1.7,1.7-1.7h33.96c.94,0,1.7,.76,1.7,1.7v23.77Z"/></g></svg>